<svg width="43" height="43" viewBox="0 0 43 43" fill="none" xmlns="http://www.w3.org/2000/svg">
<path fill-rule="evenodd" clip-rule="evenodd" d="M27.9409 13.8428C31.4307 13.8428 34.8638 13.8428 38.3288 13.8428C38.3288 20.9433 38.3288 28.0308 38.3288 35.1691C38.2107 35.1691 38.0923 35.1691 37.9734 35.1691C34.9662 35.1691 31.9578 35.1653 28.9497 35.1754C28.6969 35.1763 28.5688 35.0595 28.3991 34.9016C27.9905 34.5215 27.9304 34.0733 27.9317 33.5458C27.9455 27.1496 27.9405 20.7526 27.9405 14.356C27.9409 14.1977 27.9409 14.0389 27.9409 13.8428ZM33.1594 19.157C34.0792 19.157 35.0003 19.1583 35.9209 19.1566C36.6013 19.1554 36.7798 18.9785 36.7815 18.3116C36.7827 17.9437 36.7874 17.5753 36.7806 17.207C36.7714 16.7189 36.5669 16.493 36.0885 16.4909C34.1246 16.4833 32.1606 16.4829 30.1971 16.4913C29.741 16.493 29.534 16.7206 29.5235 17.1864C29.5142 17.5791 29.5188 17.9718 29.5218 18.3645C29.5268 18.9596 29.7192 19.1533 30.324 19.1558C31.269 19.1596 32.214 19.157 33.1594 19.157ZM29.8595 28.4554C30.7788 28.4554 31.655 28.4554 32.534 28.4554C32.534 27.6146 32.534 26.801 32.534 25.9896C31.6264 25.9896 30.7486 25.9896 29.8595 25.9896C29.8595 26.8208 29.8595 27.6268 29.8595 28.4554ZM32.5399 24.7645C32.5399 23.9341 32.5399 23.1185 32.5399 22.2936C31.6348 22.2936 30.749 22.2936 29.8658 22.2936C29.8658 23.1328 29.8658 23.9383 29.8658 24.7645C30.7637 24.7645 31.6403 24.7645 32.5399 24.7645ZM32.5391 29.6911C31.6197 29.6911 30.7436 29.6911 29.8771 29.6911C29.8771 30.5365 29.8771 31.3509 29.8771 32.1665C30.7784 32.1665 31.6466 32.1665 32.5391 32.1665C32.5391 31.3333 32.5391 30.518 32.5391 29.6911ZM36.4383 22.2936C35.5555 22.2936 34.6714 22.2936 33.7663 22.2936C33.7663 23.1185 33.7663 23.932 33.7663 24.764C34.6651 24.764 35.5412 24.764 36.4383 24.764C36.4383 23.9379 36.4383 23.1328 36.4383 22.2936ZM33.773 25.9783C33.773 26.8283 33.773 27.6423 33.773 28.4554C34.6798 28.4554 35.5568 28.4554 36.4304 28.4554C36.4304 27.6158 36.4304 26.8023 36.4304 25.9783C35.5328 25.9783 34.6664 25.9783 33.773 25.9783ZM33.768 29.6827C33.768 30.5185 33.768 31.3324 33.768 32.1615C34.6685 32.1615 35.5437 32.1615 36.4354 32.1615C36.4354 31.3244 36.4354 30.5113 36.4354 29.6827C35.5345 29.6827 34.6588 29.6827 33.768 29.6827Z" fill="white"/>
<path fill-rule="evenodd" clip-rule="evenodd" d="M14.6962 13.8271C14.6962 14.0136 14.6962 14.1472 14.6962 14.2812C14.6962 20.8386 14.6962 27.3965 14.6962 33.954C14.6962 34.6079 14.1431 35.1694 13.4996 35.1694C10.7247 35.1694 7.94892 35.1694 5.17398 35.169C4.4373 35.169 4.27686 35.0132 4.27686 34.2946C4.27686 27.7615 4.27686 21.2288 4.27686 14.6957C4.27686 13.9876 4.43646 13.828 5.1408 13.828C8.18622 13.8276 11.2316 13.8276 14.2775 13.8276C14.3984 13.8271 14.5194 13.8271 14.6962 13.8271ZM9.52686 16.487C8.5449 16.487 7.56294 16.4811 6.58098 16.4891C6.0732 16.4933 5.86488 16.7075 5.8569 17.2107C5.8506 17.6277 5.84892 18.0452 5.85774 18.4623C5.8674 18.9247 6.0753 19.1498 6.53604 19.1523C8.49996 19.1603 10.4639 19.1603 12.4278 19.1523C12.8911 19.1506 13.1011 18.9306 13.1141 18.4707C13.125 18.0906 13.1183 17.7096 13.1166 17.3295C13.1141 16.6777 12.9305 16.4891 12.2888 16.4874C11.3681 16.4849 10.4475 16.4866 9.52686 16.487ZM12.7642 28.4679C12.7642 27.6174 12.7642 26.8035 12.7642 25.9891C11.8595 25.9891 10.9834 25.9891 10.1023 25.9891C10.1023 26.8291 10.1023 27.6435 10.1023 28.4679C10.9994 28.4679 11.8675 28.4679 12.7642 28.4679ZM12.7747 22.2843C11.8654 22.2843 10.9893 22.2843 10.0989 22.2843C10.0989 23.1247 10.0989 23.9403 10.0989 24.7614C11.0019 24.7614 11.8793 24.7614 12.7747 24.7614C12.7747 23.9332 12.7747 23.1276 12.7747 22.2843ZM10.1023 29.6754C10.1023 30.5243 10.1023 31.3382 10.1023 32.158C11.0069 32.158 11.8835 32.158 12.7651 32.158C12.7651 31.3176 12.7651 30.5041 12.7651 29.6754C11.8692 29.6754 11.0011 29.6754 10.1023 29.6754ZM6.20004 24.7644C7.09842 24.7644 7.97454 24.7644 8.87166 24.7644C8.87166 23.9307 8.87166 23.1167 8.87166 22.2822C7.97328 22.2822 7.098 22.2822 6.20004 22.2822C6.20004 23.1175 6.20004 23.9307 6.20004 24.7644ZM6.20676 25.9777C6.20676 26.8274 6.20676 27.6414 6.20676 28.4553C7.11354 28.4553 7.99008 28.4553 8.86536 28.4553C8.86536 27.617 8.86536 26.8035 8.86536 25.9777C7.96908 25.9777 7.1022 25.9777 6.20676 25.9777ZM8.87166 29.6809C7.97412 29.6809 7.09842 29.6809 6.20004 29.6809C6.20004 30.5146 6.20004 31.3281 6.20004 32.1631C7.09842 32.1631 7.97328 32.1631 8.87166 32.1631C8.87166 31.3285 8.87166 30.515 8.87166 29.6809Z" fill="white"/>
<path fill-rule="evenodd" clip-rule="evenodd" d="M24.5322 31.9952C27.536 29.5097 26.9694 24.8813 23.3982 23.1618C23.8505 23.1618 24.2218 23.1618 24.612 23.1618C24.612 22.2437 24.612 21.3655 24.612 20.4616C23.7195 20.4616 22.832 20.4616 21.916 20.4616C21.916 21.2306 21.916 21.9875 21.916 22.767C21.5162 22.767 21.144 22.767 20.7421 22.767C20.7421 22.0076 20.7421 21.2512 20.7421 20.4658C19.8261 20.4658 18.9386 20.4658 18.0281 20.4658C18.0281 21.3445 18.0281 22.2235 18.0281 23.1391C18.3993 23.1391 18.7744 23.1391 19.1495 23.1391C17.5014 24.0694 16.443 25.4004 16.2074 27.2879C15.9696 29.1938 16.6736 30.7474 18.1142 31.991C17.3779 32.3917 16.6458 32.7895 15.876 33.2082C15.876 33.0717 15.876 32.9428 15.876 32.8142C15.876 24.9896 15.876 17.165 15.876 9.34045C15.876 8.56723 16.0217 8.42317 16.8029 8.42317C19.8492 8.42275 22.8954 8.42275 25.9417 8.42317C26.5721 8.42317 26.7611 8.60713 26.7611 9.22663C26.7615 17.113 26.7615 24.9989 26.7615 32.8848C26.7615 32.9894 26.7615 33.0944 26.7615 33.2086C26.0009 32.7949 25.2756 32.4001 24.5322 31.9952ZM21.3057 13.3796C22.1882 13.3796 23.0714 13.3838 23.9538 13.3779C24.4137 13.375 24.6225 13.1608 24.6313 12.6988C24.638 12.343 24.6384 11.9877 24.6305 11.632C24.6216 11.1947 24.4104 10.9553 23.9803 10.9528C22.2024 10.9436 20.4242 10.9436 18.6463 10.9537C18.2355 10.9558 18.0184 11.196 18.0075 11.6055C17.9982 11.9486 18.0029 12.2922 18.0058 12.6353C18.0096 13.1843 18.2066 13.3775 18.7673 13.3792C19.6131 13.3817 20.4594 13.3796 21.3057 13.3796ZM18.0218 19.234C18.9437 19.234 19.8219 19.234 20.7005 19.234C20.7005 18.3234 20.7005 17.4355 20.7005 16.5552C19.7933 16.5552 18.9147 16.5552 18.0218 16.5552C18.0218 17.4553 18.0218 18.3335 18.0218 19.234ZM24.6053 19.2453C24.6053 18.3276 24.6053 17.4406 24.6053 16.5527C23.6993 16.5527 22.8207 16.5527 21.9353 16.5527C21.9353 17.4599 21.9353 18.3469 21.9353 19.2453C22.8312 19.2453 23.7006 19.2453 24.6053 19.2453Z" fill="white"/>
<path fill-rule="evenodd" clip-rule="evenodd" d="M21.3455 23.9519C23.5707 23.9754 25.3267 25.7709 25.2986 27.9914C25.2704 30.1612 23.4485 31.9449 21.2918 31.913C19.0687 31.8798 17.3135 30.0822 17.3391 27.8642C17.3643 25.6919 19.1699 23.9288 21.3455 23.9519Z" fill="white"/>
<path fill-rule="evenodd" clip-rule="evenodd" d="M18.0707 7.22788C18.0527 7.16068 18.0355 7.12624 18.035 7.09138C18.0229 6.21694 17.9099 5.77594 19.185 5.84482C19.684 5.8717 20.1854 5.84944 20.7289 5.84944C20.7289 5.35972 20.7264 4.89814 20.7298 4.43656C20.7327 3.97918 20.9612 3.70744 21.3295 3.715C21.6844 3.72214 21.9037 3.98548 21.907 4.42228C21.9112 4.88554 21.9083 5.34838 21.9083 5.84944C22.5626 5.84944 23.1838 5.8486 23.8058 5.84944C24.4106 5.85028 24.6001 6.03634 24.6068 6.6361C24.6089 6.82846 24.6068 7.02124 24.6068 7.2283C22.4005 7.22788 20.2455 7.22788 18.0707 7.22788Z" fill="white"/>
<circle cx="21.75" cy="30.75" r="8.25" fill="#1ED760"/>
<circle cx="21.7499" cy="30.9999" r="1.72743" stroke="white"/>
<path d="M25.9183 29.9563C26.3184 30.3926 26.5185 30.6107 26.5185 30.9998C26.5185 31.3889 26.3184 31.6071 25.9183 32.0434C25.0193 33.0237 23.488 34.341 21.75 34.341C20.012 34.341 18.4807 33.0237 17.5817 32.0434C17.1816 31.6071 16.9815 31.3889 16.9815 30.9998C16.9815 30.6107 17.1816 30.3926 17.5817 29.9563C18.4807 28.976 20.012 27.6587 21.75 27.6587C23.488 27.6587 25.0193 28.976 25.9183 29.9563Z" stroke="white"/>
</svg>
