<svg width="25" height="17" viewBox="0 0 25 17" fill="none" xmlns="http://www.w3.org/2000/svg">
<path d="M3.34668 15.4209H1.34668V14.4209C1.34668 12.557 2.62145 10.9909 4.34668 10.5469M6.34668 7.2502C5.18149 6.83837 4.34668 5.72713 4.34668 4.42091C4.34668 3.11469 5.18149 2.00345 6.34668 1.59161M21.3467 15.4209H23.3467V14.4209C23.3467 12.557 22.0719 10.9909 20.3467 10.5469M18.3467 1.59161C19.5119 2.00345 20.3467 3.11469 20.3467 4.42091C20.3467 5.72713 19.5119 6.83837 18.3467 7.2502M10.3467 10.4209H14.3467C16.5558 10.4209 18.3467 12.2118 18.3467 14.4209V15.4209H6.34668V14.4209C6.34668 12.2118 8.13754 10.4209 10.3467 10.4209ZM15.3467 4.4209C15.3467 6.07775 14.0035 7.4209 12.3467 7.4209C10.6898 7.4209 9.34668 6.07775 9.34668 4.4209C9.34668 2.76404 10.6898 1.4209 12.3467 1.4209C14.0035 1.4209 15.3467 2.76404 15.3467 4.4209Z" stroke="#6C6290" stroke-width="1.5" stroke-linecap="round" stroke-linejoin="round"/>
</svg>
