<svg width="28" height="22" viewBox="0 0 28 22" fill="none" xmlns="http://www.w3.org/2000/svg">
<path fill-rule="evenodd" clip-rule="evenodd" d="M4.11055 11.3873C3.55619 11.1949 3.37761 10.8052 3.38737 10.2762C3.40215 9.4759 3.38944 8.67496 3.3918 7.87431C3.39446 6.95895 3.95651 6.39394 4.87099 6.38566C5.1288 6.3833 5.3881 6.37088 5.64473 6.38951C5.86441 6.40577 5.96996 6.33067 6.05156 6.11957C6.62839 4.62886 7.22 3.14376 7.80748 1.65718C8.03336 1.08537 8.27669 0.921875 8.89935 0.921875C12.52 0.921875 16.1406 0.921875 19.7616 0.921875C20.3834 0.921875 20.6231 1.08419 20.8514 1.66043C21.4362 3.13873 22.0269 4.61437 22.597 6.09799C22.688 6.33511 22.8048 6.40281 23.0428 6.3904C23.3704 6.37325 23.7024 6.37118 24.0288 6.4034C24.7245 6.472 25.2369 6.99413 25.2561 7.69159C25.2821 8.62499 25.2718 9.55957 25.2603 10.4939C25.2549 10.9172 25.0557 11.1538 24.5528 11.4006C24.5876 11.5029 24.6219 11.6097 24.6601 11.7149C25.6698 14.4941 26.6797 17.2733 27.6891 20.0525C27.9806 20.8567 27.5874 21.4217 26.7365 21.4217C18.4633 21.422 10.1899 21.422 1.91646 21.4217C1.07176 21.4217 0.677648 20.8508 0.968577 20.0493C1.97796 17.2698 2.98823 14.4906 3.99791 11.7114C4.03427 11.6123 4.06739 11.5124 4.11055 11.3873ZM24.3553 10.4723C24.3553 9.61131 24.3558 8.77667 24.355 7.94231C24.3544 7.43703 24.2142 7.29896 23.6989 7.29837C22.756 7.29748 21.8132 7.29807 20.8703 7.29807C15.5685 7.29807 10.2671 7.29807 4.9656 7.29837C4.43489 7.29837 4.30244 7.432 4.30184 7.96124C4.30155 8.53955 4.30184 9.11756 4.30184 9.69587C4.30184 9.95103 4.30184 10.2059 4.30184 10.4726C10.9962 10.4723 17.6559 10.4723 24.3553 10.4723ZM21.9507 17.3277C16.8644 17.3277 11.7962 17.3277 6.70615 17.3277C6.41226 18.3823 6.11926 19.4346 5.82272 20.4993C11.5148 20.4993 17.1598 20.4993 22.8359 20.4993C22.5372 19.4302 22.2445 18.3812 21.9507 17.3277ZM13.8531 16.3946C13.8531 14.723 13.8531 13.0741 13.8531 11.4101C12.0165 11.4101 10.1979 11.4101 8.35829 11.4101C7.89618 13.0652 7.43377 14.7209 6.96633 16.3946C9.26893 16.3946 11.5491 16.3946 13.8531 16.3946ZM20.2985 11.4101C18.4583 11.4101 16.64 11.4101 14.8072 11.4101C14.8072 13.0797 14.8072 14.7339 14.8072 16.3937C17.108 16.3937 19.3882 16.3937 21.6902 16.3937C21.2227 14.72 20.7603 13.0643 20.2985 11.4101ZM7.41544 11.395C6.69669 11.395 6.03027 11.4045 5.36415 11.3897C5.15187 11.385 5.05637 11.4474 4.98304 11.6517C3.97958 14.4329 2.96635 17.2109 1.95579 19.9896C1.89577 20.1545 1.83989 20.3207 1.77721 20.5008C2.82443 20.5008 3.84387 20.5008 4.87424 20.5008C5.71865 17.4756 6.56039 14.4587 7.41544 11.395ZM21.2414 11.3953C22.0988 14.4669 22.9426 17.4889 23.7832 20.5008C24.8313 20.5008 25.8424 20.5008 26.8755 20.5008C26.8429 20.4017 26.8181 20.3186 26.7885 20.2367C26.3708 19.0848 25.9527 17.9329 25.534 16.7811C24.9123 15.0704 24.292 13.3591 23.6631 11.6508C23.627 11.5526 23.5239 11.408 23.4488 11.406C22.7297 11.3882 22.0101 11.3953 21.2414 11.3953ZM17.6263 1.83132C17.4019 1.83132 17.1891 1.83132 16.9768 1.83132C15.0736 1.83132 13.1707 1.83044 11.2676 1.83458C11.1827 1.83487 11.0382 1.86266 11.0228 1.91026C10.888 2.32744 10.7762 2.75171 10.6532 3.19018C13.1208 3.19018 15.5449 3.19018 18.0033 3.19018C17.875 2.72776 17.7526 2.28694 17.6263 1.83132ZM14.8013 6.36822C16.164 6.36822 17.511 6.36822 18.8616 6.36822C18.8616 6.31796 18.8693 6.281 18.8604 6.24848C18.678 5.58945 18.4891 4.93191 18.3126 4.27111C18.2721 4.11973 18.1816 4.11323 18.0577 4.11352C17.0256 4.11618 15.9937 4.115 14.9613 4.11618C14.9104 4.11618 14.8596 4.12919 14.801 4.13717C14.8013 4.88401 14.8013 5.61784 14.8013 6.36822ZM13.8517 6.37088C13.8517 5.60512 13.8517 4.87189 13.8517 4.1289C12.6879 4.1289 11.544 4.1289 10.3901 4.1289C10.1822 4.87632 9.97733 5.6134 9.76652 6.37088C11.1558 6.37088 12.4952 6.37088 13.8517 6.37088ZM18.61 1.83162C18.6064 1.87745 18.597 1.90553 18.6038 1.92889C19.0026 3.36491 19.4 4.80123 19.8098 6.23429C19.8287 6.30052 19.9567 6.3762 20.0354 6.37827C20.5418 6.39099 21.0486 6.38537 21.5551 6.3833C21.6027 6.3833 21.65 6.36615 21.6875 6.35906C21.6952 6.32742 21.7017 6.31707 21.699 6.31027C21.1287 4.85681 20.5596 3.40335 19.9824 1.95254C19.9609 1.89785 19.8689 1.83872 19.8083 1.83694C19.4095 1.82659 19.0103 1.83162 18.61 1.83162ZM6.93115 6.38478C7.4994 6.38478 8.03041 6.37561 8.56112 6.3898C8.75743 6.39513 8.83638 6.33008 8.88664 6.14263C9.13115 5.2255 9.39015 4.3125 9.64441 3.39773C9.78663 2.88683 9.93002 2.37593 10.0823 1.83132C9.6864 1.83132 9.32421 1.84374 8.96321 1.8263C8.76837 1.81713 8.68677 1.89016 8.61877 2.06519C8.09486 3.41281 7.55972 4.75629 7.02871 6.10124C6.99737 6.18136 6.97254 6.26415 6.93115 6.38478Z" fill="#656565"/>
</svg>
