<svg width="26" height="20" viewBox="0 0 26 20" fill="none" xmlns="http://www.w3.org/2000/svg">
<path fill-rule="evenodd" clip-rule="evenodd" d="M3.24096 10.2305C2.72781 10.0568 2.56251 9.70518 2.57155 9.22785C2.58523 8.50559 2.57346 7.78279 2.57565 7.06026C2.57811 6.2342 3.09837 5.72432 3.94485 5.71685C4.1835 5.71472 4.42351 5.70351 4.66106 5.72032C4.8644 5.73499 4.9621 5.66722 5.03764 5.47672C5.57158 4.13144 6.1192 2.79124 6.663 1.4497C6.87209 0.933681 7.09732 0.786133 7.67368 0.786133C11.0251 0.786133 14.3766 0.786133 17.7283 0.786133C18.3038 0.786133 18.5257 0.932614 18.737 1.45263C19.2784 2.7867 19.8252 4.11837 20.3528 5.45724C20.4371 5.67123 20.5452 5.73233 20.7655 5.72112C21.0687 5.70565 21.3761 5.70378 21.6782 5.73286C22.3222 5.79476 22.7965 6.26595 22.8142 6.89537C22.8383 7.7377 22.8288 8.5811 22.8181 9.42423C22.8132 9.80631 22.6287 10.0198 22.1632 10.2425C22.1955 10.3349 22.2272 10.4312 22.2625 10.5262C23.1971 13.0342 24.132 15.5423 25.0663 18.0503C25.3362 18.7761 24.9722 19.2859 24.1845 19.2859C16.5265 19.2862 8.86828 19.2862 1.21001 19.2859C0.428117 19.2859 0.0633073 18.7707 0.332604 18.0474C1.26693 15.5391 2.20208 13.031 3.13669 10.523C3.17035 10.4336 3.201 10.3434 3.24096 10.2305ZM21.9804 9.40475C21.9804 8.62779 21.9809 7.87458 21.9801 7.12163C21.9795 6.66564 21.8498 6.54104 21.3728 6.54051C20.5 6.53971 19.6273 6.54024 18.7545 6.54024C13.847 6.54024 8.93971 6.54024 4.03243 6.54051C3.54118 6.54051 3.41857 6.66111 3.41803 7.1387C3.41775 7.66059 3.41803 8.18221 3.41803 8.7041C3.41803 8.93436 3.41803 9.16435 3.41803 9.40502C9.61459 9.40475 15.7791 9.40475 21.9804 9.40475ZM19.7546 15.5914C15.0465 15.5914 10.3552 15.5914 5.64356 15.5914C5.37152 16.5431 5.10031 17.4927 4.82581 18.4535C10.0946 18.4535 15.3199 18.4535 20.5739 18.4535C20.2975 17.4887 20.0266 16.542 19.7546 15.5914ZM12.2591 14.7493C12.2591 13.2407 12.2591 11.7527 12.2591 10.2511C10.559 10.2511 8.87567 10.2511 7.17286 10.2511C6.7451 11.7447 6.31707 13.2389 5.88439 14.7493C8.01578 14.7493 10.1264 14.7493 12.2591 14.7493ZM18.2253 10.2511C16.5219 10.2511 14.8388 10.2511 13.1423 10.2511C13.1423 11.7578 13.1423 13.2506 13.1423 14.7485C15.272 14.7485 17.3826 14.7485 19.5134 14.7485C19.0808 13.2381 18.6527 11.7439 18.2253 10.2511ZM6.3001 10.2375C5.6348 10.2375 5.01793 10.246 4.40134 10.2327C4.20484 10.2284 4.11645 10.2847 4.04857 10.4691C3.11972 12.979 2.18183 15.486 1.24641 17.9935C1.19085 18.1424 1.13913 18.2923 1.08111 18.4548C2.05047 18.4548 2.9941 18.4548 3.94786 18.4548C4.72948 15.7248 5.50863 13.0022 6.3001 10.2375ZM19.098 10.2377C19.8917 13.0097 20.6727 15.7368 21.4508 18.4548C22.421 18.4548 23.3569 18.4548 24.3132 18.4548C24.2831 18.3654 24.2601 18.2905 24.2327 18.2165C23.846 17.177 23.459 16.1375 23.0715 15.098C22.496 13.5542 21.9218 12.0099 21.3397 10.4683C21.3063 10.3797 21.2108 10.2492 21.1413 10.2474C20.4757 10.2313 19.8096 10.2377 19.098 10.2377ZM15.7518 1.60685C15.5441 1.60685 15.347 1.60685 15.1505 1.60685C13.3889 1.60685 11.6275 1.60605 9.86583 1.60979C9.78728 1.61005 9.65345 1.63513 9.63922 1.67809C9.51443 2.05457 9.41098 2.43744 9.29713 2.83313C11.5812 2.83313 13.8251 2.83313 16.1007 2.83313C15.9819 2.41583 15.8686 2.01801 15.7518 1.60685ZM13.1368 5.70111C14.3982 5.70111 15.645 5.70111 16.8952 5.70111C16.8952 5.65575 16.9023 5.6224 16.8941 5.59305C16.7252 4.99832 16.5504 4.40493 16.387 3.8086C16.3495 3.67199 16.2657 3.66612 16.1511 3.66639C15.1957 3.66879 14.2405 3.66772 13.2849 3.66879C13.2378 3.66879 13.1907 3.68053 13.1365 3.68773C13.1368 4.3617 13.1368 5.02394 13.1368 5.70111ZM12.2578 5.70351C12.2578 5.01246 12.2578 4.35077 12.2578 3.68026C11.1806 3.68026 10.1217 3.68026 9.05356 3.68026C8.86116 4.35477 8.6715 5.01993 8.47637 5.70351C9.76238 5.70351 11.0021 5.70351 12.2578 5.70351ZM16.6623 1.60712C16.659 1.64848 16.6502 1.67382 16.6565 1.6949C17.0257 2.99082 17.3936 4.287 17.7729 5.58024C17.7904 5.64001 17.9089 5.70831 17.9817 5.71018C18.4505 5.72165 18.9196 5.71658 19.3884 5.71472C19.4324 5.71472 19.4762 5.69924 19.511 5.69284C19.5181 5.66429 19.5241 5.65495 19.5217 5.64881C18.9937 4.33716 18.4669 3.0255 17.9327 1.71625C17.9127 1.66689 17.8276 1.61352 17.7715 1.61192C17.4023 1.60258 17.0328 1.60712 16.6623 1.60712ZM5.85182 5.71605C6.37783 5.71605 6.86935 5.70778 7.3606 5.72059C7.54232 5.72539 7.61539 5.66669 7.66191 5.49753C7.88824 4.66987 8.12798 3.84595 8.36335 3.02043C8.49498 2.55938 8.62772 2.09832 8.76866 1.60685C8.40221 1.60685 8.06696 1.61806 7.7328 1.60232C7.55244 1.59405 7.47691 1.65995 7.41396 1.8179C6.92901 3.03404 6.43366 4.24644 5.94214 5.46018C5.91313 5.53248 5.89014 5.60719 5.85182 5.71605Z" fill="#A097BF"/>
</svg>
