<svg width="98" height="27" viewBox="0 0 98 27" fill="none" xmlns="http://www.w3.org/2000/svg">
<path d="M65.7921 0.55957H58.2513C57.7365 0.55957 57.2977 0.934406 57.2172 1.44374L54.1678 20.7776C54.1072 21.159 54.4027 21.503 54.7874 21.503H58.657C59.0164 21.503 59.324 21.2406 59.3803 20.8834L60.2457 15.4031C60.3251 14.8926 60.7649 14.5178 61.2798 14.5178H63.6655C68.6332 14.5178 71.4985 12.1144 72.2481 7.35182C72.5866 5.26817 72.2614 3.63102 71.2857 2.48446C70.2152 1.22545 68.3157 0.55957 65.7921 0.55957ZM66.662 7.62082C66.2508 10.3262 64.1837 10.3262 62.1838 10.3262H61.0472L61.8465 5.27368C61.8939 4.9683 62.1562 4.7434 62.466 4.7434H62.9875C64.3479 4.7434 65.6334 4.7434 66.2971 5.51953C66.6929 5.98256 66.813 6.6705 66.662 7.62082Z" fill="#BDBDBD"/>
<path d="M88.3284 7.53389H84.7201C84.4103 7.53389 84.1468 7.75879 84.1005 8.06418L83.9407 9.07403L83.6871 8.70801C82.9054 7.57358 81.1636 7.19434 79.4239 7.19434C75.4341 7.19434 72.0275 10.2162 71.3638 14.4551C71.0198 16.5696 71.5082 18.5916 72.7077 20.0016C73.8102 21.2981 75.3823 21.8383 77.2553 21.8383C80.4701 21.8383 82.2528 19.7712 82.2528 19.7712L82.0918 20.7744C82.0312 21.1581 82.3267 21.502 82.7136 21.502H85.9648C86.4796 21.502 86.9184 21.1272 86.9989 20.6168L88.9513 8.25931C89.0109 7.87896 88.7154 7.53389 88.3284 7.53389ZM83.2957 14.561C82.9495 16.6237 81.3102 18.0084 79.2221 18.0084C78.1759 18.0084 77.3358 17.6721 76.7978 17.0349C76.2642 16.4021 76.0636 15.5014 76.2312 14.4981C76.5586 12.4531 78.2211 11.0232 80.2772 11.0232C81.3025 11.0232 82.1359 11.3638 82.685 12.0066C83.2373 12.6559 83.4556 13.5621 83.2957 14.561Z" fill="#BDBDBD"/>
<path d="M92.5854 1.08998L89.4908 20.7777C89.4302 21.1591 89.7257 21.5031 90.1104 21.5031H93.2215C93.7386 21.5031 94.1774 21.1283 94.2568 20.6178L97.3084 1.28511C97.369 0.903663 97.0735 0.558594 96.6888 0.558594H93.205C92.8974 0.559696 92.6328 0.784598 92.5854 1.08998Z" fill="#BDBDBD"/>
<path d="M12.0128 0.55957H4.47314C3.95719 0.55957 3.51841 0.934406 3.43793 1.44374L0.38853 20.7776C0.327895 21.159 0.623353 21.503 1.01032 21.503H4.60984C5.12579 21.503 5.56457 21.1281 5.64505 20.6177L6.46749 15.4031C6.54686 14.8926 6.98674 14.5178 7.50159 14.5178H9.88841C14.855 14.5178 17.7214 12.1144 18.4699 7.35182C18.8073 5.26817 18.4843 3.63102 17.5086 2.48446C16.437 1.22545 14.5364 0.55957 12.0128 0.55957ZM12.8827 7.62082C12.4704 10.3262 10.4033 10.3262 8.4045 10.3262H7.26677L8.06495 5.27368C8.11235 4.9683 8.37694 4.7434 8.68563 4.7434H9.20709C10.5686 4.7434 11.853 4.7434 12.5167 5.51953C12.9125 5.98256 13.0337 6.6705 12.8827 7.62082Z" fill="#BDBDBD"/>
<path d="M34.5504 7.53389H30.9399C30.6323 7.53389 30.3666 7.75879 30.3192 8.06418L30.1593 9.07403L29.9069 8.70801C29.1252 7.57358 27.3823 7.19434 25.6426 7.19434C21.6528 7.19434 18.2451 10.2162 17.5814 14.4551C17.2363 16.5696 17.7269 18.5916 18.9264 20.0016C20.0266 21.2981 21.601 21.8383 23.474 21.8383C26.6888 21.8383 28.4715 19.7712 28.4715 19.7712L28.3105 20.7744C28.2499 21.1581 28.5453 21.502 28.9301 21.502H32.1824C32.6994 21.502 33.136 21.1272 33.2176 20.6168L35.1689 8.25931C35.2306 7.87896 34.9363 7.53389 34.5504 7.53389ZM29.5177 14.561C29.1693 16.6237 27.5322 18.0084 25.4441 18.0084C24.3957 18.0084 23.5578 17.6721 23.0198 17.0349C22.4862 16.4021 22.2834 15.5014 22.4532 14.4981C22.7784 12.4531 24.4431 11.0232 26.4992 11.0232C27.5245 11.0232 28.3579 11.3638 28.907 12.0066C29.4571 12.6559 29.6754 13.5621 29.5177 14.561Z" fill="#BDBDBD"/>
<path d="M53.7798 7.5332H50.1516C49.8054 7.5332 49.4802 7.70519 49.2839 7.99293L44.2799 15.364L42.1587 8.28067C42.0254 7.83748 41.6163 7.5332 41.1533 7.5332H37.588C37.1547 7.5332 36.8537 7.95655 36.9915 8.36446L40.9879 20.0924L37.2308 25.3963C36.9353 25.8142 37.233 26.3885 37.7434 26.3885H41.3672C41.7111 26.3885 42.0331 26.221 42.2282 25.9387L54.2957 8.5199C54.5846 8.10317 54.288 7.5332 53.7798 7.5332Z" fill="#BDBDBD"/>
</svg>
