<svg width="57" height="57" viewBox="0 0 57 57" fill="none" xmlns="http://www.w3.org/2000/svg">
<path fill-rule="evenodd" clip-rule="evenodd" d="M0.783203 53.0982C0.783203 43.7744 0.783203 34.45 0.783203 25.1262C0.893227 24.7673 0.9605 24.3875 1.12082 24.053C1.78851 22.656 2.95351 22.1317 4.45613 22.1323C20.4398 22.1418 36.4242 22.138 52.4079 22.1399C52.677 22.1399 52.9479 22.1524 53.2151 22.1851C54.5908 22.3587 55.6791 23.364 55.9689 24.7138C55.9984 24.8528 56.0425 24.9886 56.0802 25.1256C56.0802 34.4494 56.0802 43.7738 56.0802 53.0976C55.9626 53.4855 55.884 53.891 55.7224 54.2594C55.271 55.2817 54.4003 55.8017 53.3799 56.1223C36.748 56.1223 20.1161 56.1223 3.48351 56.1223C2.51907 55.8211 1.67471 55.3452 1.21701 54.399C1.0196 53.991 0.924663 53.5333 0.783203 53.0982ZM11.7812 28.5559C10.8099 28.5559 9.83789 28.5464 8.86653 28.5577C7.21428 28.5766 6.09015 29.7007 6.08009 31.3448C6.07129 32.838 6.07254 34.3312 6.07946 35.8244C6.087 37.4999 7.20988 38.6322 8.8898 38.6429C10.8149 38.6555 12.74 38.6548 14.6651 38.6429C16.3067 38.6328 17.4365 37.5647 17.4755 35.935C17.5132 34.3708 17.5157 32.8047 17.4736 31.2398C17.4296 29.6303 16.3092 28.5772 14.6959 28.5577C13.724 28.5458 12.7526 28.5559 11.7812 28.5559ZM13.8396 45.9064C11.1544 45.9064 8.52389 45.9064 5.89085 45.9064C5.89085 46.9821 5.89085 48.0163 5.89085 49.0732C8.55092 49.0732 11.1827 49.0732 13.8396 49.0732C13.8396 48.0088 13.8396 46.9739 13.8396 45.9064ZM18.2758 49.055C20.9459 49.055 23.589 49.055 26.2189 49.055C26.2189 47.9742 26.2189 46.9406 26.2189 45.902C23.5501 45.902 20.9195 45.902 18.2758 45.902C18.2758 46.9746 18.2758 48.0094 18.2758 49.055ZM30.6507 45.8907C30.6507 46.9834 30.6507 48.0308 30.6507 49.06C33.3259 49.06 35.9564 49.06 38.5794 49.06C38.5794 47.983 38.5794 46.9488 38.5794 45.8907C35.9275 45.8907 33.3095 45.8907 30.6507 45.8907ZM43.0231 49.0625C45.7096 49.0625 48.3414 49.0625 50.9713 49.0625C50.9713 47.9874 50.9713 46.9526 50.9713 45.8976C48.3106 45.8976 45.6788 45.8976 43.0231 45.8976C43.0231 46.9639 43.0231 47.9994 43.0231 49.0625Z" fill="white"/>
<path fill-rule="evenodd" clip-rule="evenodd" d="M35.668 0.825195C36.6506 1.11314 37.3648 1.77329 38.0652 2.4831C40.0985 4.54653 42.1575 6.58418 44.2316 8.65704C44.1335 8.78153 44.0562 8.89658 43.9619 8.99592C40.9623 12.1784 37.9659 15.3635 34.9512 18.5316C34.7664 18.7258 34.442 18.8918 34.1817 18.8931C28.1888 18.9126 22.1953 18.9082 16.2025 18.9069C16.0667 18.9069 15.9302 18.8843 15.707 18.8648C15.9057 18.6529 16.044 18.497 16.1911 18.3505C21.4975 13.0436 26.8088 7.74101 32.1057 2.42401C32.7998 1.72802 33.5071 1.08925 34.4803 0.825195C34.8758 0.825195 35.2719 0.825195 35.668 0.825195Z" fill="white"/>
<path fill-rule="evenodd" clip-rule="evenodd" d="M46.4889 11.0322C47.3546 11.8967 48.1908 12.7316 49.0578 13.5974C48.607 14.0796 48.1317 14.5907 47.6539 15.0987C46.5555 16.2637 45.4616 17.4325 44.35 18.5849C44.2035 18.7371 43.969 18.8911 43.7722 18.8943C42.3161 18.9194 40.8581 18.9075 39.4014 18.9049C39.3385 18.9049 39.2757 18.8741 39.1323 18.8377C41.6157 16.2021 44.0532 13.6162 46.4889 11.0322Z" fill="white"/>
<path fill-rule="evenodd" clip-rule="evenodd" d="M54.4186 18.9995C52.6331 18.9995 50.6526 18.9995 48.6722 18.9995C48.6546 18.9316 48.637 18.863 48.6194 18.7951C49.5342 17.8213 50.4496 16.8474 51.3568 15.8823C52.4375 16.9826 53.5038 18.0677 54.4186 18.9995Z" fill="white"/>
<path fill-rule="evenodd" clip-rule="evenodd" d="M9.34863 31.8223C10.9795 31.8223 12.5852 31.8223 14.2218 31.8223C14.2218 33.0149 14.2218 34.1743 14.2218 35.3713C12.5934 35.3713 10.9877 35.3713 9.34863 35.3713C9.34863 34.1919 9.34863 33.0181 9.34863 31.8223Z" fill="white"/>
</svg>
