<svg width="21" height="21" viewBox="0 0 21 21" fill="none" xmlns="http://www.w3.org/2000/svg">
<path fill-rule="evenodd" clip-rule="evenodd" d="M3.79834 9.39788C3.81035 5.86406 6.68481 3.00907 10.2186 3.02103C13.7525 3.03308 16.6074 5.90754 16.5955 9.44136V9.51382C16.552 11.8109 15.2694 13.9341 13.6969 15.5935C12.7976 16.5274 11.7933 17.3541 10.7041 18.0573C10.4129 18.3092 9.98089 18.3092 9.68964 18.0573C8.0659 17.0004 6.64079 15.6661 5.4795 14.1153C4.44446 12.763 3.85681 11.1216 3.79834 9.41962V9.39788Z" stroke="#A097BF" stroke-width="1.5" stroke-linecap="round" stroke-linejoin="round"/>
<path opacity="0.4" d="M10.1967 11.5717C11.3293 11.5717 12.2474 10.6535 12.2474 9.52094C12.2474 8.38836 11.3293 7.47021 10.1967 7.47021C9.06414 7.47021 8.146 8.38836 8.146 9.52094C8.146 10.6535 9.06414 11.5717 10.1967 11.5717Z" stroke="#A097BF" stroke-width="1.5" stroke-linecap="round" stroke-linejoin="round"/>
</svg>
