<svg width="21" height="21" viewBox="0 0 21 21" fill="none" xmlns="http://www.w3.org/2000/svg">
<path fill-rule="evenodd" clip-rule="evenodd" d="M4.23926 9.08392C4.25126 5.5501 7.12573 2.6951 10.6595 2.70707C14.1934 2.71911 17.0484 5.59357 17.0364 9.1274V9.19986C16.9929 11.497 15.7103 13.6202 14.1378 15.2796C13.2385 16.2134 12.2343 17.0402 11.1451 17.7433C10.8538 17.9953 10.4218 17.9953 10.1306 17.7433C8.50681 16.6865 7.0817 15.3521 5.92042 13.8013C4.88538 12.449 4.29773 10.8076 4.23926 9.10566V9.08392Z" stroke="#A097BF" stroke-width="1.5" stroke-linecap="round" stroke-linejoin="round"/>
<path opacity="0.4" d="M10.6379 11.2577C11.7705 11.2577 12.6886 10.3396 12.6886 9.20697C12.6886 8.07439 11.7705 7.15625 10.6379 7.15625C9.5053 7.15625 8.58716 8.07439 8.58716 9.20697C8.58716 10.3396 9.5053 11.2577 10.6379 11.2577Z" stroke="#A097BF" stroke-width="1.5" stroke-linecap="round" stroke-linejoin="round"/>
</svg>
