<svg width="19" height="20" viewBox="0 0 19 20" fill="none" xmlns="http://www.w3.org/2000/svg">
<path d="M6.34668 14.75V15.75C6.34668 16.144 6.42428 16.5341 6.57504 16.8981C6.7258 17.262 6.94678 17.5927 7.22536 17.8713C7.50393 18.1499 7.83465 18.3709 8.19863 18.5216C8.56261 18.6724 8.95271 18.75 9.34668 18.75C9.74065 18.75 10.1308 18.6724 10.4947 18.5216C10.8587 18.3709 11.1894 18.1499 11.468 17.8713C11.7466 17.5927 11.9676 17.262 12.1183 16.8981C12.2691 16.5341 12.3467 16.144 12.3467 15.75V14.75M15.3467 6.75C15.3467 9.74999 17.3467 14.75 17.3467 14.75H1.34668C1.34668 14.75 3.34668 10.75 3.34668 6.75C3.34668 3.482 6.07868 0.75 9.34668 0.75C12.6147 0.75 15.3467 3.482 15.3467 6.75Z" stroke="#6C6290" stroke-width="1.5" stroke-linecap="round" stroke-linejoin="round"/>
</svg>
