<svg width="422" height="378" viewBox="0 0 422 378" fill="none" xmlns="http://www.w3.org/2000/svg">
<path d="M395.273 210.61C393.969 212.699 392.67 214.754 391.287 216.804C379.167 235.002 364.13 252.487 347.474 268.554C346.722 269.302 345.932 270.054 345.145 270.806C342.775 273.053 340.327 275.304 337.878 277.474C333.658 281.344 329.313 285.091 324.892 288.684C322.564 290.658 320.158 292.592 317.788 294.49C290.238 316.276 260.791 335.342 231.776 349.709C222.78 354.212 213.779 358.236 204.897 361.709C158.556 380.065 115.413 384.368 85.6509 366.169C76.1761 360.406 68.0845 352.353 61.6517 341.738C60.6242 340.037 59.599 338.341 58.5714 336.645C49.0596 320.736 39.9798 304.75 32.0063 288.682C30.1123 284.931 28.3364 281.225 26.6 277.472C-2.33419 215.304 -13.3474 152.387 27.6633 90.4913C43.6103 66.4145 69.7828 47.6653 101.202 34.4013C110.162 30.5727 119.516 27.2561 129.228 24.3751C134.004 22.8761 138.818 21.5728 143.752 20.3889C149.95 18.8112 156.264 17.4291 162.659 16.2452C167.554 15.2964 172.449 14.4682 177.382 13.7569C179.435 13.4812 181.488 13.2055 183.541 12.9274C198.105 11.074 212.869 10.0464 227.554 9.92827C229.485 9.8877 231.42 9.8877 233.316 9.8877C242.198 9.92827 250.998 10.2827 259.683 10.994C262.011 11.1516 264.34 11.3485 266.668 11.6242C310.999 15.9278 351.654 28.6369 379.285 49.7169C385.325 54.3344 390.734 59.3075 395.428 64.715C396.299 65.702 397.129 66.689 397.915 67.7142C398.192 68.0305 398.432 68.3467 398.705 68.663C404.429 75.8464 409.008 83.2685 412.443 90.8469C430.011 129.097 419.745 171.291 395.273 210.61Z" fill="#26203A"/>
<path d="M305.926 326.214C295.275 337.378 287.693 353.34 299.149 362.795C311.943 373.357 338.328 370.905 351.971 350.984C360.691 338.256 365.305 318.139 355.644 306.851C347.377 297.192 318.991 312.517 305.926 326.214Z" fill="#E8E5EA"/>
<path d="M246.856 67.7153L272.906 112.834L280.326 125.703L284.672 133.203L312.892 182.07L323.038 199.675L333.221 182.07L380.311 100.479L381.969 97.6365L394.839 75.3749L398.39 69.1761L398.707 68.6641L399.262 67.7153H246.856ZM393.38 73.9141L388.249 82.834L387.577 83.9785L380.153 96.8082L378.537 99.651L330.93 182.07L323.036 195.727L315.142 182.07L286.921 133.203L282.577 125.703L272.905 108.927L250.251 69.6893H395.826L393.38 73.9141Z" fill="white"/>
<path d="M283.133 257.365C280.32 255.679 281.14 255.463 277.961 256.049C274.526 256.686 267.136 260.228 263.397 263.182C263.359 263.177 263.328 263.158 263.29 263.15C246.363 260.252 243.386 248.279 236.545 242.609C232.751 217.757 213.637 150.125 213.637 150.125L184.838 160.834C189.035 189.329 205.922 243.527 210.302 255.753C211.023 257.233 211.948 258.41 212.989 259.365C214.422 262.402 217.01 265.329 221.176 267.742C238.442 277.726 254.785 277.865 261.037 277.464C261.238 277.664 261.465 277.841 261.727 277.984C265.964 280.297 283.337 282.563 287.396 281.234C291.521 279.88 299.967 271.33 299.362 268.965C298.375 265.092 290.188 261.589 283.133 257.365Z" fill="#FFAD69"/>
<path d="M187.795 131.856C179.665 150.132 182.65 208.042 182.65 208.042L234.616 195.656C234.616 195.656 209.238 83.6456 187.795 131.856Z" fill="#377ADB"/>
<path d="M231.775 349.709C222.779 354.212 213.778 358.236 204.896 361.709C158.554 380.065 115.412 384.368 85.6496 366.169C86.0828 349.077 86.6748 331.276 87.1486 323.184C87.2274 322.235 87.3061 321.407 87.3455 320.736L103.292 320.42H104.004L104.042 320.382L190.33 318.685H190.409L195.934 318.565L201.46 318.445L226.958 317.932C227.236 319.116 227.51 320.381 227.748 321.643C229.41 329.699 230.713 339.367 231.775 349.709Z" fill="#232323"/>
<path d="M149.621 107.369C118.621 108.39 108.14 118.855 102.796 136.952C96.7249 157.502 86.0351 281.621 86.0351 323.094C86.0351 323.094 178.816 329.67 230.212 321.243C214.102 266.807 212.356 168.931 212.033 139.769C211.79 117.892 188.921 106.073 149.621 107.369Z" fill="#4D8DFF"/>
<path d="M152.713 158.702V217.399H201.817V158.702H152.713ZM199.843 215.425H154.687V160.675H199.843V215.425Z" fill="white"/>
<path d="M176.932 56.6163C179.985 54.3165 195.915 56.4039 191.328 23.9681C189.654 12.1362 178.542 20.0333 170.674 21.6111C162.806 23.19 167.809 57.2023 167.809 57.2023L176.932 56.6163Z" fill="#232323"/>
<path d="M137.267 48.8447C138.589 57.4436 141.235 103.956 140.132 114.759C139.029 125.56 191.275 128.646 184.44 116.743C177.605 104.839 182.457 65.3801 182.457 65.3801L137.267 48.8447Z" fill="#FFAD69"/>
<path d="M140.883 50.1611L182.452 65.3837C182.452 65.3837 179.644 88.3636 181.339 104.546C149.643 102.094 141.507 62.0623 140.973 54.3514C140.883 52.9025 140.839 51.499 140.883 50.1611Z" fill="#D88344"/>
<path d="M195.797 47.3823C199.651 73.9343 206.191 100.412 174.005 96.0526C141.816 91.6953 136.815 50.428 136.908 42.6455C137.41 1.10728 188.223 -4.83016 195.797 47.3823Z" fill="#FFAD69"/>
<path d="M192.365 17.7335C184.79 8.93649 142.203 5.61629 135.154 13.4048C134.377 10.9606 135.96 7.95427 135.975 7.92324L134.236 6.98877C134.155 7.14034 132.23 10.7684 133.277 14.0254C133.311 14.1316 133.399 14.2032 133.437 14.3047C125.642 16.0185 130.619 49.872 130.619 49.872L139.742 49.286C142.795 46.9886 153.379 30.8161 155.716 21.0513C172.394 23.8738 201.992 28.9125 192.365 17.7335Z" fill="#232323"/>
<path d="M187.836 258.301C184.575 258.482 171.923 260.679 167.485 259.651C152.562 256.166 114.097 238.915 93.3927 229.268C106.13 201.618 124.882 152.681 124.882 152.681L95.3989 144.027C81.716 169.373 62.82 222.903 59.0165 235.324C58.8016 236.439 58.7873 237.483 58.8542 238.488C58.7193 243.399 60.9713 248.418 66.8813 252.018C83.2699 262.002 145.098 271.685 162.217 273.578C162.536 274.218 162.951 274.797 163.631 275.182C167.818 277.533 186.877 279.295 190.795 279.988C195.709 280.856 210.628 282.12 209.985 280.123C208.929 276.851 203.4 257.429 187.836 258.301Z" fill="#FFAD69"/>
<path d="M113.094 118.572C96.4635 129.687 68.0748 180.251 68.0748 180.251L118.63 197.516C118.63 197.516 156.963 89.2526 113.094 118.572Z" fill="#4D8DFF"/>
<path d="M170.634 43.8766C169.665 43.799 168.795 44.7842 168.692 46.0772C168.588 47.3702 169.29 48.4814 170.259 48.5591C171.228 48.6367 172.097 47.6515 172.201 46.3585C172.305 45.0655 171.603 43.9543 170.634 43.8766Z" fill="#232323"/>
<path d="M191.142 44.4059C190.174 44.3282 189.305 45.3139 189.201 46.6076C189.097 47.9013 189.798 49.013 190.766 49.0907C191.735 49.1684 192.604 48.1827 192.708 46.8891C192.812 45.5954 192.111 44.4837 191.142 44.4059Z" fill="#232323"/>
<path d="M163.65 38.8042L161.997 37.7254C165.487 32.3799 171.343 33.6199 171.595 33.6772L171.167 35.6046C170.977 35.5616 166.38 34.6248 163.65 38.8042Z" fill="#232323"/>
<path d="M194.69 41.2649C192.602 36.7226 187.911 36.9685 187.727 36.9924L187.587 35.022C187.84 35.0029 193.818 34.6365 196.482 40.4402L194.69 41.2649Z" fill="#232323"/>
<path d="M175.283 70.5163C171.948 70.5163 165.535 69.5699 161.549 62.9438L163.241 61.9258C168.068 69.9565 176.728 68.4898 177.097 68.423L177.454 70.3635C177.424 70.3695 176.59 70.5163 175.283 70.5163Z" fill="#232323"/>
<path d="M190.459 61.5242L180.874 61.3941L180.901 59.4213L187.814 59.5156L183.545 44.9602L185.438 44.4053L190.459 61.5242Z" fill="#D88344"/>
<path d="M145.073 52.2259C147.98 58.7768 151.62 65.1164 142.49 66.2967C133.363 67.4747 129.113 57.2217 128.596 55.2143C125.836 44.4995 139.354 39.3437 145.073 52.2259Z" fill="#FFAD69"/>
<path d="M392.253 288.673H14.5472C11.4645 288.673 8.94269 286.152 8.94269 283.068C8.94269 279.984 11.4657 277.464 14.5472 277.464H392.253C395.337 277.464 397.858 279.984 397.858 283.068C397.859 286.152 395.337 288.673 392.253 288.673Z" fill="white"/>
<path d="M154.328 288.673H11.745C8.66108 288.673 6.1405 286.152 6.1405 283.068C6.1405 279.984 8.66108 277.464 11.745 277.464H154.328C157.411 277.464 159.933 279.984 159.933 283.068C159.933 286.152 157.41 288.673 154.328 288.673Z" fill="#D8D5DB"/>
<path d="M373.758 268.562H256.597C252.121 268.562 249.153 264.93 249.966 260.455L262.744 190.183C263.562 185.707 267.847 182.081 272.328 182.081H389.488C393.963 182.081 396.932 185.707 396.119 190.183L383.34 260.455C382.524 264.93 378.237 268.562 373.758 268.562Z" fill="#2B2B2B"/>
<path d="M376.622 268.562H259.461C254.986 268.562 252.019 264.93 252.831 260.455L265.61 190.183C266.424 185.707 270.713 182.081 275.188 182.081H392.35C396.829 182.081 399.797 185.707 398.984 190.183L386.201 260.455C385.387 264.93 381.098 268.562 376.622 268.562Z" fill="#232323"/>
<path d="M312.657 209.148L306.774 241.514H339.142L345.063 209.148H312.657ZM337.524 239.54H309.146L314.315 211.122H342.697L337.524 239.54Z" fill="white"/>
<path d="M236.047 270.809C236.047 274.467 239.042 277.463 242.704 277.463H365.266C368.927 277.463 371.923 274.467 371.923 270.809H236.047Z" fill="#232323"/>
<path d="M200.441 270.809C200.441 274.467 203.435 277.463 207.094 277.463H255.295C258.956 277.463 261.952 274.467 261.952 270.809H200.441Z" fill="#2B2B2B"/>
<path d="M335.064 52.7388C330.916 52.7388 327.551 56.1043 327.551 60.2552H342.58C342.58 56.1031 339.216 52.7388 335.064 52.7388Z" fill="#377ADB"/>
<path d="M335.072 52.7417V125.711C335.072 129.865 331.703 133.204 327.543 133.204H272.91V60.2724C272.91 56.1156 276.279 52.7417 280.407 52.7417H335.072Z" fill="#4D8DFF"/>
<path d="M320.049 125.709L265.389 125.699C265.389 129.849 268.754 133.214 272.906 133.214L327.543 133.202C323.388 133.202 320.049 129.864 320.049 125.709Z" fill="#6EA9FF"/>
<path d="M392.487 99.7942C407.284 99.7942 419.279 87.7991 419.279 73.0023C419.279 58.2056 407.284 46.2104 392.487 46.2104C377.69 46.2104 365.695 58.2056 365.695 73.0023C365.695 87.7991 377.69 99.7942 392.487 99.7942Z" fill="#00E276"/>
<path d="M392.485 73.0044L413.775 94.2921C402.099 105.97 382.875 105.97 371.199 94.2921C366.197 89.2891 363.113 82.6785 362.496 75.6276L392.485 73.0044Z" fill="#232323"/>
<path d="M392.485 73.0038L362.584 76.4899C362.19 73.1124 362.371 69.6944 363.119 66.3765C363.867 63.0599 365.17 59.8949 366.977 57.0127L392.485 73.0038Z" fill="white"/>
<path d="M261.347 34.2423H238.65C235.72 34.2423 233.322 31.8446 233.322 28.9147V6.22114C233.322 3.29121 235.72 0.893555 238.65 0.893555H261.347C264.275 0.893555 266.674 3.29121 266.674 6.22114V28.9159C266.674 31.8458 264.275 34.2423 261.347 34.2423Z" fill="#232323"/>
<path d="M254.708 40.877H232.015C229.086 40.877 226.689 38.4794 226.689 35.5506V12.8559C226.689 9.92597 229.086 7.52832 232.015 7.52832H254.709C257.642 7.52832 260.04 9.92597 260.04 12.8559V35.5506C260.039 38.4794 257.641 40.877 254.708 40.877Z" fill="#FF4E4A"/>
</svg>
