<svg width="23" height="13" viewBox="0 0 23 13" fill="none" xmlns="http://www.w3.org/2000/svg">
<path d="M6.28252 12.362C5.22652 12.362 4.25585 12.1167 3.37052 11.626C2.49585 11.1353 1.79718 10.4527 1.27452 9.578C0.762516 8.69267 0.506516 7.70067 0.506516 6.602C0.506516 5.50333 0.762516 4.51667 1.27452 3.642C1.79718 2.76733 2.49585 2.08467 3.37052 1.594C4.25585 1.10333 5.22652 0.858 6.28252 0.858C7.33852 0.858 8.30385 1.10333 9.17852 1.594C10.0638 2.08467 10.7572 2.76733 11.2585 3.642C11.7705 4.51667 12.0265 5.50333 12.0265 6.602C12.0265 7.70067 11.7705 8.69267 11.2585 9.578C10.7465 10.4527 10.0532 11.1353 9.17852 11.626C8.30385 12.1167 7.33852 12.362 6.28252 12.362ZM6.28252 9.866C7.17852 9.866 7.89318 9.56733 8.42652 8.97C8.97052 8.37267 9.24252 7.58333 9.24252 6.602C9.24252 5.61 8.97052 4.82067 8.42652 4.234C7.89318 3.63667 7.17852 3.338 6.28252 3.338C5.37585 3.338 4.65052 3.63133 4.10652 4.218C3.57318 4.80467 3.30652 5.59933 3.30652 6.602C3.30652 7.594 3.57318 8.38867 4.10652 8.986C4.65052 9.57267 5.37585 9.866 6.28252 9.866ZM19.2766 12.25L16.9406 8.01H16.2846V12.25H13.5486V1.018H18.1406C19.026 1.018 19.778 1.17267 20.3966 1.482C21.026 1.79133 21.4953 2.218 21.8046 2.762C22.114 3.29533 22.2686 3.89267 22.2686 4.554C22.2686 5.30067 22.0553 5.96733 21.6286 6.554C21.2126 7.14067 20.594 7.55667 19.7726 7.802L22.3646 12.25H19.2766ZM16.2846 6.074H17.9806C18.482 6.074 18.8553 5.95133 19.1006 5.706C19.3566 5.46067 19.4846 5.114 19.4846 4.666C19.4846 4.23933 19.3566 3.90333 19.1006 3.658C18.8553 3.41267 18.482 3.29 17.9806 3.29H16.2846V6.074Z" fill="#9F9F9F"/>
</svg>
