<svg width="17" height="16" viewBox="0 0 17 16" fill="none" xmlns="http://www.w3.org/2000/svg">
<path d="M15.7339 13.8019V11.6943C15.7425 11.3497 15.6239 11.0141 15.4007 10.7511C14.7711 10.0096 12.612 9.53523 11.7561 9.71739C11.089 9.8594 10.6222 10.5293 10.1659 10.9847C8.40356 9.9846 6.9444 8.52832 5.94232 6.7695C6.39865 6.31407 7.06985 5.84824 7.21213 5.1824C7.39438 4.32956 6.92071 2.18423 6.1843 1.55217C5.92527 1.32985 5.59409 1.20911 5.25247 1.21247H3.14069C2.33605 1.21323 1.66661 1.93492 1.73987 2.74399C1.73438 9.71739 7.17883 15.2124 14.1994 15.2069C15.0128 15.2803 15.7372 14.6075 15.7339 13.8019Z" stroke="#A097BF" stroke-width="1.5" stroke-linecap="round" stroke-linejoin="round"/>
</svg>
