<svg width="20" height="20" viewBox="0 0 20 20" fill="none" xmlns="http://www.w3.org/2000/svg">
<path d="M18.9994 17.0297V14.3199C19.0104 13.8769 18.8579 13.4454 18.5709 13.1073C17.7615 12.1539 14.9855 11.544 13.8851 11.7783C13.0273 11.9608 12.4272 12.8221 11.8405 13.4076C9.57465 12.1218 7.69858 10.2494 6.41019 7.9881C6.9969 7.40255 7.85987 6.80363 8.04281 5.94754C8.27713 4.85103 7.66813 2.09275 6.72131 1.2801C6.38828 0.994264 5.96247 0.839035 5.52325 0.843349H2.80811C1.77358 0.844322 0.912875 1.77221 1.00706 2.81245C1 11.7783 8 18.8433 17.0264 18.8362C18.0722 18.9305 19.0036 18.0655 18.9994 17.0297Z" stroke="#656565" stroke-width="1.5" stroke-linecap="round" stroke-linejoin="round"/>
</svg>
