<svg width="186" height="175" viewBox="0 0 186 175" fill="none" xmlns="http://www.w3.org/2000/svg">
<path d="M83.4314 81.2668C83.9917 80.7636 84.5138 80.1836 84.8054 79.4808C85.0099 78.995 85.0693 78.4499 84.9695 77.9332C84.8863 77.4768 84.6969 77.0465 84.4829 76.6377C83.8546 75.5069 83.1787 74.3532 82.3799 73.335C81.5123 72.2359 80.399 71.3001 79.0986 70.7613C78.4433 70.4927 77.7112 70.3326 77.0083 70.4903C76.5028 70.6004 76.0511 70.8801 75.6708 71.224C75.1882 71.6559 74.7841 72.1741 74.4235 72.7098C74.1478 73.1258 73.8823 73.5632 73.7349 74.045C73.6034 74.4649 73.5677 74.9126 73.5852 75.3516C73.6224 76.2462 73.8657 77.1234 74.1882 77.9546C74.6248 79.0671 75.2151 80.1313 75.8649 81.1337C77.1739 83.1456 78.8902 85.0101 81.1493 85.9403C82.2904 86.4174 83.5249 86.682 84.7595 86.7406C85.6446 86.7779 86.5511 86.7082 87.3894 86.4063C88.2111 86.117 88.9378 85.5774 89.4584 84.8801C90.1842 83.9189 90.5511 82.724 90.6636 81.5338C90.8395 79.7383 90.2333 77.9816 89.46 76.3881C88.8252 75.0418 87.8958 73.453 87.1588 72.1488C86.2539 70.644 84.6771 67.8088 83.7373 66.3604" stroke="#1AB26B" stroke-width="2.25" stroke-miterlimit="10" stroke-linecap="round" stroke-linejoin="round"/>
<path d="M76.709 69.5092C78.6622 69.1732 80.5418 68.4347 82.2438 67.4244C82.6519 67.1812 83.0584 66.9157 83.4308 66.6209C83.6709 66.4284 83.9063 66.2192 84.0941 65.9743C84.2597 65.758 84.3888 65.4957 84.3825 65.2176C84.3793 65.0259 84.3175 64.8404 84.2478 64.6637C83.3611 62.8325 81.598 57.9728 80.8366 56.0172L80.3809 54.8809" stroke="#1AB26B" stroke-width="2.25" stroke-miterlimit="10" stroke-linecap="round" stroke-linejoin="round"/>
<path d="M24.2822 151.525L25.3052 149.575C26.0326 148.159 26.6784 146.655 27.1808 145.146L28.3971 141.4C28.6966 140.558 28.9946 139.601 29.4938 138.857C29.6095 138.697 29.7434 138.542 29.9209 138.45C30.2886 138.257 30.6626 138.528 30.9637 138.727C31.3995 139.03 31.867 139.371 32.3282 139.626C32.7703 139.877 33.2465 140.084 33.7244 140.258C35.8028 141.001 38.1863 141.418 40.3266 141.953C40.741 142.061 41.18 142.176 41.5778 142.334C41.8472 142.447 42.1792 142.603 42.2156 142.929C42.2418 143.174 42.1689 143.42 42.0968 143.652C41.9644 144.048 41.7774 144.444 41.5952 144.819C41.5532 144.925 38.7703 150.207 38.6095 150.506C37.5247 152.597 36.5849 154.865 35.7988 157.086" stroke="#1AB26B" stroke-width="2.25" stroke-miterlimit="10" stroke-linecap="round" stroke-linejoin="round"/>
<path d="M29.5672 156.267C28.8675 155.794 27.9491 155.46 27.2098 155.056C26.8271 154.846 26.4595 154.597 26.1591 154.279C25.6314 153.736 25.1924 152.892 24.8002 152.245C24.5379 151.818 24.2297 151.405 23.8263 151.102C23.5831 150.918 23.3057 150.774 23.007 150.711C22.7542 150.656 22.488 150.663 22.2392 150.735C21.965 150.813 21.7154 150.96 21.4888 151.131C21.1013 151.425 20.7637 151.789 20.4444 152.154C18.671 154.285 17.011 156.799 15.0458 158.761C13.713 160.109 12.2012 161.292 10.5728 162.263C9.07597 163.187 7.01021 164.007 5.38818 164.705C4.58153 165.071 3.7511 165.457 3.06331 166.024C2.6584 166.358 2.30974 166.764 2.04667 167.218C1.46505 168.225 1.29944 169.447 1.42147 170.593C1.50388 171.304 1.78914 172.039 2.38581 172.472C2.75031 172.741 3.19484 172.88 3.63462 172.967C4.34936 173.105 5.10768 173.125 5.83509 173.142C7.57122 173.119 34.4404 173.246 35.5458 173.073C36.2827 172.993 37.0268 172.788 37.6314 172.343C38.1662 171.958 38.5624 171.392 38.7574 170.763C38.9856 170.031 38.9832 169.247 38.9269 168.488C38.8675 167.745 38.7336 166.992 38.5561 166.267C38.3683 165.491 38.0062 164.466 37.8295 163.688C37.4048 161.821 37.3612 159.46 37.0957 157.562C37.0545 157.325 37.0149 157.078 36.919 156.855C36.8762 156.758 36.816 156.655 36.713 156.613C36.6536 156.59 36.5878 156.595 36.5276 156.613C36.4579 156.632 36.3913 156.666 36.3287 156.702C36.1195 156.823 35.6702 157.189 35.4674 157.342C34.923 157.752 34.3279 158.12 33.6702 158.315C33.2732 158.431 32.8461 158.479 32.438 158.388C31.9127 158.273 31.4856 157.915 31.0918 157.568C30.6354 157.151 30.0807 156.607 29.5672 156.267Z" stroke="#1AB26B" stroke-width="2.25" stroke-miterlimit="10" stroke-linecap="round" stroke-linejoin="round"/>
<path d="M63.1113 90.3127C63.5194 89.7248 63.9608 89.0734 64.4679 88.5718C64.9679 88.0655 65.5566 87.6432 66.1557 87.262C67.6636 86.304 69.4814 85.4474 71.0994 84.6749C72.8807 83.8373 74.826 82.9593 76.6652 82.2676" stroke="#1AB26B" stroke-width="2.25" stroke-miterlimit="10" stroke-linecap="round" stroke-linejoin="round"/>
<path d="M41.682 142.381L44.0861 139.197C45.258 137.61 46.3626 135.92 47.2905 134.178C48.8016 131.438 51.4117 124.908 52.6946 121.966C53.3578 120.481 54.0647 118.925 54.8967 117.531C55.3032 116.856 55.7532 116.191 56.3182 115.638C56.7311 115.233 57.2184 114.898 57.7469 114.66C58.2279 114.439 58.7485 114.284 59.2612 114.154C62.6573 113.3 72.8523 111.889 76.4418 111.283C78.3293 110.949 80.3388 110.597 82.1787 110.071C82.8792 109.863 83.5979 109.64 84.2421 109.292C84.5281 109.133 84.8031 108.939 85.006 108.68C85.1589 108.484 85.2619 108.249 85.3079 108.004C85.3982 107.493 85.2912 106.97 85.147 106.478C84.8443 105.498 84.3522 104.576 83.8435 103.688C82.1224 100.775 80.0202 97.9934 77.8736 95.3809C76.3324 93.5481 74.6962 91.6939 72.8855 90.121C71.9315 89.3127 70.8713 88.5061 69.6058 88.3024C68.9077 88.1875 68.1906 88.2739 67.5084 88.4411C66.5353 88.6812 65.59 89.0703 64.6851 89.4958C62.1851 90.7105 59.8032 92.2517 57.8119 94.201C56.9363 95.0623 55.8578 96.2398 54.8563 96.9363C53.9078 97.6241 52.2247 98.3864 51.1732 98.9332C50.1685 99.4593 49.1788 100.057 48.3476 100.832C46.9529 102.136 45.9941 103.834 45.1233 105.513C44.2913 107.189 42.9347 109.938 42.0274 111.525C40.4007 114.411 38.3183 118.012 36.9189 120.979C34.2604 126.574 32.0568 132.465 30.2485 138.389" stroke="#1AB26B" stroke-width="2.25" stroke-miterlimit="10" stroke-linecap="round" stroke-linejoin="round"/>
<path d="M136.405 135.229C136.674 135.426 137.013 135.625 137.244 135.863C137.413 136.033 137.549 136.237 137.637 136.458C137.734 136.702 137.79 136.961 137.834 137.219C137.997 138.283 138.023 139.603 138.22 140.66C138.355 141.467 138.605 142.256 138.939 143.002C139.543 144.415 140.595 145.889 141.322 147.243C141.63 147.829 141.847 148.522 142.075 149.143" stroke="#1AB26B" stroke-width="2.25" stroke-miterlimit="10" stroke-linecap="round" stroke-linejoin="round"/>
<path d="M129.723 154.423C129.036 153.181 128.375 151.844 128.334 150.4C128.311 149.357 128.412 148.281 128.203 147.248C127.852 145.442 126.789 143.37 126.08 141.671C125.875 141.18 125.657 140.649 125.518 140.138C125.456 139.909 125.41 139.674 125.409 139.435C125.398 139.061 125.543 138.694 125.612 138.332" stroke="#1AB26B" stroke-width="2.25" stroke-miterlimit="10" stroke-linecap="round" stroke-linejoin="round"/>
<path d="M144.42 153.479C143.895 151.984 143.33 150.419 142.199 149.266C141.426 148.469 140.443 147.891 139.388 147.553C138.678 147.326 137.932 147.191 137.185 147.202C136.394 147.213 135.603 147.394 134.894 147.749C133.928 148.236 133.123 148.992 132.404 149.789C131.826 150.441 131.297 151.152 130.829 151.886C130.461 152.469 130.119 153.083 129.898 153.737C129.741 154.203 129.653 154.695 129.652 155.186C129.649 155.754 129.761 156.321 129.916 156.865C130.402 158.597 131.388 160.25 131.962 161.952C132.366 163.152 132.502 164.43 132.519 165.69C132.52 166.318 132.528 168.505 132.55 169.088C132.577 169.739 132.613 170.405 132.777 171.037C132.921 171.592 133.206 172.113 133.704 172.422C134.141 172.698 134.655 172.812 135.157 172.892C136.877 173.133 138.829 173.121 140.569 173.146C141.083 173.129 147.87 173.19 148.22 173.109C148.483 173.078 148.749 173.021 148.985 172.898C149.179 172.798 149.348 172.653 149.484 172.482C149.754 172.14 149.918 171.728 150.04 171.314C150.236 170.636 150.318 169.921 150.34 169.217C150.378 167.916 150.205 166.598 149.762 165.373C149.527 164.713 149.18 164.089 148.81 163.495C148.244 162.606 147.47 161.444 147.007 160.51C146.547 159.608 146.168 158.627 145.825 157.674C145.826 157.675 144.42 153.479 144.42 153.479Z" stroke="#1AB26B" stroke-width="2.25" stroke-miterlimit="10" stroke-linecap="round" stroke-linejoin="round"/>
<path d="M105.502 107.214C103.402 108.589 101.084 109.827 98.8316 110.939C95.2833 112.586 91.1993 114.805 87.4885 115.973C85.9402 116.447 84.3158 116.771 82.6898 116.691C79.0424 116.494 75.9037 114.233 73.353 111.784" stroke="#1AB26B" stroke-width="2.25" stroke-miterlimit="10" stroke-linecap="round" stroke-linejoin="round"/>
<path d="M112.782 111.51C111.189 111.007 109.676 110.246 108.278 109.335C107.234 108.656 106.209 107.902 105.314 107.032C104.454 106.194 103.696 105.225 103.212 104.12C102.596 102.713 102.461 101.121 102.7 99.6128C103.462 94.9274 107.122 93.2649 110.811 91.1112C111.943 90.4369 113.643 89.2768 114.782 88.6191" stroke="#1AB26B" stroke-width="2.25" stroke-miterlimit="10" stroke-linecap="round" stroke-linejoin="round"/>
<path d="M136.751 88.4512C137.148 87.2761 137.384 86.0384 137.533 84.8086C137.641 83.9298 137.702 83.0281 137.564 82.1493C137.385 80.8538 136.713 79.6937 136.015 78.6105C134.753 76.6747 133.29 74.6319 132.635 72.3942C131.798 69.7143 131.682 66.6192 130.688 63.9845C130.19 62.6708 129.42 61.4624 128.608 60.3213C127.498 58.788 125.926 56.7532 125.038 55.1042C123.813 52.9481 122.491 49.5337 121.519 47.2215C121.193 46.4323 120.706 45.4941 120.291 44.7389C120.146 44.4632 120.002 44.1732 119.899 43.8792C119.832 43.6866 119.778 43.487 119.751 43.2849C119.737 43.1795 119.732 43.071 119.754 42.9671C119.768 42.9006 119.8 42.8293 119.865 42.7984L119.869 42.7968L119.874 42.7952L119.878 42.7936L119.881 42.792L119.885 42.7904L119.889 42.7889L119.893 42.7873L119.897 42.7865L119.902 42.7857L119.908 42.7849L119.912 42.7841L119.917 42.7833L119.922 42.7825L119.927 42.7817L119.931 42.7809L119.936 42.7801H119.941H119.946C120.031 42.7778 120.114 42.8063 120.193 42.8372C120.706 43.0614 121.439 43.6201 121.916 43.9251C122.46 44.2857 123.049 44.6066 123.64 44.8832C124.263 45.1779 125.219 45.5559 125.835 45.8626C125.991 45.9331 126.154 45.998 126.327 46.0107C126.453 46.021 126.58 46.002 126.702 45.964C126.939 45.8895 127.156 45.7603 127.36 45.6217C127.761 45.3451 128.128 45.0099 128.477 44.6716C130.24 42.8998 131.835 40.9109 133.217 38.8301C133.602 38.235 133.982 37.6082 134.285 36.9672C134.46 36.5924 134.618 36.2001 134.705 35.7952C134.815 35.3016 134.796 34.7667 134.519 34.3301C134.237 33.8848 133.793 33.5718 133.363 33.281C132.428 32.6827 131.339 32.044 130.441 31.3935C128.027 29.6851 125.126 27.2707 122.684 25.6059C122.073 25.1922 121.375 24.7461 120.743 24.3666C119.407 23.6059 113.705 20.1899 112.412 19.5559C111.408 19.0472 110.359 18.5718 109.267 18.2905C108.557 18.1059 107.816 18.033 107.084 18.0916C105.963 18.1661 104.703 18.5726 103.617 18.8468C100.95 19.5306 97.7254 19.5607 95.0099 19.987C92.4552 20.3697 89.9529 21.193 87.5337 22.0789" stroke="#1AB26B" stroke-width="2.25" stroke-miterlimit="10" stroke-linecap="round" stroke-linejoin="round"/>
<path d="M90.6787 81.312C91.7627 81.5925 93.2041 81.8944 94.2223 82.3279C94.9854 82.6353 95.6969 83.0735 96.3697 83.5442C98.0678 84.7565 99.8118 86.0481 101.844 86.6266C103.091 86.999 104.41 87.102 105.707 87.0933C107.872 87.0751 110.097 86.7478 112.231 86.392C115.814 85.7795 121.037 84.5965 124.621 84.5109C127.313 84.4214 130.049 84.7454 132.588 85.6717C133.597 86.0347 134.576 86.522 135.42 87.1892C136.855 88.3231 137.946 89.8469 138.816 91.4388C139.5 92.7169 140.04 94.0933 140.297 95.522C140.695 97.705 140.458 99.9538 140.042 102.115C139.858 103.045 139.579 104.211 139.553 105.158C139.471 106.63 139.655 108.506 139.747 109.987C139.785 110.765 139.822 111.568 139.674 112.338C139.597 112.715 139.465 113.1 139.195 113.382C138.783 113.806 138.163 113.908 137.599 113.957C136.877 114.009 135.935 113.978 135.206 113.985C134.208 113.976 133.185 113.924 132.212 113.691" stroke="#1AB26B" stroke-width="2.25" stroke-miterlimit="10" stroke-linecap="round" stroke-linejoin="round"/>
<path d="M133.885 101.497C133.972 97.6288 132.501 95.5155 129.074 93.8301C127.464 93.0504 125.728 92.5131 123.958 92.258C122.471 92.048 120.902 92.0504 119.495 92.6352C118.453 93.0567 117.553 93.7651 116.75 94.5393C115.814 95.445 114.923 96.4299 114.169 97.4933C113.326 98.6811 112.639 99.9949 112.229 101.396C111.777 102.94 111.648 104.572 111.726 106.174C111.82 108.015 112.184 109.849 112.808 111.584C113.318 113.006 114.047 114.357 114.835 115.643L116.611 118.472C118.369 121.214 119.507 124.844 120.618 127.904C121.927 131.429 123.346 135.056 125.493 138.165C126.166 139.105 126.932 140.018 127.914 140.647C128.433 140.98 129.013 141.224 129.616 141.355C130.212 141.485 130.828 141.508 131.434 141.454C132.515 141.351 133.594 141.063 134.553 140.546C135.124 140.233 135.668 139.816 136 139.244C136.247 138.822 136.366 138.336 136.419 137.855C136.54 136.555 136.384 135.099 136.322 133.795C136.034 130.729 135.712 124.771 135.219 121.809C134.977 120.386 134.537 118.987 133.929 117.678L132.937 115.541C132.28 114.086 131.708 112.544 131.876 110.92C132.024 109.155 132.8 107.407 133.267 105.715C133.649 104.345 133.865 102.92 133.885 101.497Z" stroke="#1AB26B" stroke-width="2.25" stroke-miterlimit="10" stroke-linecap="round" stroke-linejoin="round"/>
<path d="M129.762 43.3114C131.755 45.1204 133.892 46.8327 136.254 48.137C138.047 49.1378 140.016 49.87 141.963 50.511C144.089 51.1988 147.954 52.3518 150.038 53.0808C154.621 54.6885 159.368 56.5332 163.725 58.6814C164.942 59.2852 166.313 60.1639 167.672 60.3391C168.253 60.4215 168.853 60.3961 169.437 60.347C170.502 60.2519 171.877 60.034 172.942 59.9445C173.9 59.862 174.879 59.8359 175.835 59.9445C176.577 60.0269 177.316 60.2059 178.029 60.4246C179.079 60.7424 180.338 61.2693 181.382 61.6132C181.653 61.6996 181.934 61.7812 182.215 61.8343C182.583 61.9032 182.99 61.9318 183.328 61.7416C183.51 61.6425 183.662 61.4944 183.792 61.3351C184.003 61.0728 184.202 60.7242 184.398 60.4476C184.591 60.1592 184.777 59.8399 184.79 59.4849C184.802 59.267 184.751 59.0506 184.674 58.8478C184.558 58.5419 184.39 58.2567 184.209 57.9857C183.59 57.0784 182.814 56.2804 182.006 55.5419C181.396 54.9976 180.751 54.4643 179.999 54.1291C179.495 53.9033 178.953 53.7685 178.408 53.6853C176.63 53.4048 173.293 53.5086 171.465 53.4476C169.815 53.3858 168.091 53.3628 166.522 52.7947C165.567 52.4611 164.53 51.744 163.67 51.2083C163.239 50.9294 160.079 49.1703 159.563 48.8763C158.474 48.2432 157.342 47.5348 156.313 46.8074C154.082 45.2353 150.785 42.4516 148.577 40.8256C146.843 39.5372 144.989 38.3486 143.041 37.4136C140.352 36.1014 137.43 35.168 134.546 34.3843" stroke="#1AB26B" stroke-width="2.25" stroke-miterlimit="10" stroke-linecap="round" stroke-linejoin="round"/>
<path d="M66.3008 42.7928C66.5322 41.9957 66.8055 41.1906 67.1542 40.4363C67.4767 39.735 67.8681 39.0575 68.2976 38.4165C69.3039 36.9276 70.4965 35.5456 71.8816 34.3975" stroke="#1AB26B" stroke-width="2.25" stroke-miterlimit="10" stroke-linecap="round" stroke-linejoin="round"/>
<path d="M73.4668 35.5011C73.6689 36.2325 73.8551 37.0249 74.3281 37.6358C74.6292 38.0391 75.0334 38.3561 75.4676 38.6073C76.0524 38.9464 76.6966 39.1897 77.3479 39.3704C78.8479 39.7769 80.443 39.8902 81.9779 39.6184C83.0761 39.4187 84.1308 38.9916 85.0848 38.4163C86.3669 37.6429 87.4882 36.6097 88.4287 35.4488C89.3455 34.3268 90.0706 32.9924 90.1926 31.5273C90.3083 30.2349 90.0151 28.9361 89.5706 27.7285C88.9786 26.162 88.1007 24.6858 86.9303 23.4829" stroke="#1AB26B" stroke-width="2.25" stroke-miterlimit="10" stroke-linecap="round" stroke-linejoin="round"/>
<path d="M62.9746 17.6559C62.4968 15.8302 62.3835 13.9166 62.458 12.0371C62.5522 9.91027 62.9936 7.65909 64.4231 6.00775C65.9579 4.23596 68.1703 3.21536 70.3747 2.54658C72.2487 1.99587 74.2194 1.6591 76.1758 1.77162C77.2186 1.83501 78.267 2.03787 79.2265 2.45942C79.9405 2.77162 80.5966 3.21853 81.1734 3.73992C82.2249 4.69079 83.0435 5.87938 83.7202 7.11868C84.5364 8.61075 85.1513 10.2264 85.4349 11.9071" stroke="#1AB26B" stroke-width="2.25" stroke-miterlimit="10" stroke-linecap="round" stroke-linejoin="round"/>
<path d="M63.1304 20.8953C62.8895 20.2733 62.769 19.6014 62.769 18.9342C62.7706 18.4286 62.8499 17.916 63.0567 17.4508C63.2318 17.0507 63.4925 16.6909 63.7754 16.3613C64.166 15.9088 64.6177 15.4794 65.0567 15.0736C67.1312 13.2171 69.4117 11.5182 71.9228 10.3011C72.899 9.84148 73.933 9.48095 74.9964 9.29474C75.9529 9.12437 76.937 9.09743 77.9029 9.19885C79.254 9.34069 80.5804 9.7147 81.8554 10.1751C82.9806 10.5943 84.1145 11.0721 85.1406 11.6988C85.4299 11.8819 85.704 12.1053 85.895 12.393C86.2214 12.8898 86.3942 13.4754 86.5218 14.0515C86.6668 14.7551 86.727 15.4928 86.5867 16.202" stroke="#1AB26B" stroke-width="2.25" stroke-miterlimit="10" stroke-linecap="round" stroke-linejoin="round"/>
<path d="M63.7987 20.9682C63.7194 20.511 63.7297 20.0396 63.7876 19.5808C63.8359 19.2234 63.9032 18.8621 64.0435 18.5285C64.1425 18.2939 64.2844 18.0784 64.4555 17.8906C65.0998 17.2139 66.1037 16.5942 66.8351 16.0015C68.3311 14.8399 69.992 13.5087 71.6457 12.599C73.1005 11.7892 74.679 11.1347 76.339 10.9168C77.7875 10.721 79.2582 10.9675 80.6536 11.3597C81.6037 11.645 82.6718 11.9532 83.5847 12.3407C84.0347 12.5412 84.4737 12.8019 84.7923 13.1846C85.1322 13.5895 85.3422 14.0871 85.5054 14.5855C85.7107 15.2321 85.885 15.9009 85.9412 16.5784" stroke="#1AB26B" stroke-width="2.25" stroke-miterlimit="10" stroke-linecap="round" stroke-linejoin="round"/>
<path d="M68.1544 29.2677C68.1164 29.1243 68.072 28.9785 67.988 28.8541C67.9444 28.7899 67.8866 28.7305 67.8105 28.7059C67.6948 28.6702 67.5712 28.7059 67.4587 28.7368C67.1782 28.824 66.885 28.919 66.5878 28.8755C66.2423 28.8327 65.9183 28.6845 65.6267 28.5022C65.2313 28.2542 64.8826 27.9309 64.5902 27.5672C64.0149 26.8469 63.6267 25.9729 63.2376 25.1425C62.8913 24.3723 62.5482 23.5775 62.3636 22.7511C62.2685 22.2947 62.2138 21.7788 62.4587 21.3596C62.6465 21.0363 63.026 20.8541 63.3961 20.8779C63.6338 20.8897 63.8628 20.9785 64.0609 21.1076C64.5989 21.4658 65.0015 22.0387 65.4801 22.4642C65.5767 22.5443 65.6805 22.6306 65.8057 22.6576C65.9523 22.6869 66.0553 22.5744 66.1116 22.4523C66.1829 22.2994 66.2099 22.1283 66.2233 21.9611C66.2637 21.1964 66.0538 20.2947 66.0015 19.5324C65.904 18.4722 66.1037 17.404 66.3477 16.3755" stroke="#1AB26B" stroke-width="2.25" stroke-miterlimit="10" stroke-linecap="round" stroke-linejoin="round"/>
<path d="M68.1543 29.2677C68.3865 29.8255 68.6384 30.3944 68.9411 30.9166C69.2224 31.4111 69.5671 31.8873 69.9213 32.3334C70.6923 33.3033 71.5632 34.2154 72.5743 34.9388C73.1979 35.3849 73.8809 35.7589 74.6052 36.0101C75.5481 36.3366 76.5521 36.4816 77.5489 36.4879C79.0861 36.4879 80.6559 36.1916 82.0172 35.4578C82.8238 35.0204 83.5346 34.4039 84.0782 33.6646C84.7668 32.7312 85.2066 31.6314 85.5124 30.5188C85.8096 29.4 85.9886 28.2304 85.9213 27.0711C85.8944 26.5299 85.7874 25.8382 85.8959 25.3097C85.9467 25.0569 86.0608 24.82 86.1931 24.6005C86.5108 24.0854 86.9134 23.5838 87.1709 23.0339C87.4609 22.4285 87.6384 21.7685 87.7715 21.1116C87.968 20.0791 88.0774 19.0165 88.0235 17.965C87.9966 17.5965 87.9371 17.2186 87.7573 16.8913C87.6154 16.6314 87.3912 16.4151 87.1218 16.2907C86.8928 16.1845 86.6194 16.1567 86.3841 16.2574C86.102 16.3778 85.8817 16.6457 85.6693 16.8588C85.5726 16.9523 85.4387 17.1005 85.3008 17.1219H85.2977H85.2945H85.2913H85.2882H85.285H85.2818H85.2787H85.2755H85.2723H85.2684H85.2652H85.262L85.2581 17.1211L85.2541 17.1203L85.2501 17.1195L85.2462 17.1187L85.2422 17.1179L85.2383 17.1171L85.2335 17.1163L85.2295 17.1147L85.2256 17.1132L85.2216 17.1116L85.2177 17.11L85.2137 17.1084L85.2097 17.1068L85.2058 17.1052L85.201 17.1037L85.197 17.1021L85.1955 17.0997L85.1915 17.0973L85.1875 17.0949L85.1836 17.0926L85.1796 17.0902L85.1757 17.0878L85.1717 17.0854L85.1685 17.0831C85.1035 17.0308 85.0615 16.9555 85.0243 16.8818C84.8056 16.3897 84.6931 15.7273 84.5243 15.217C84.2731 14.3786 83.7826 13.633 83.2137 12.9761C82.8706 12.5696 82.5037 12.1607 82.1051 11.8081" stroke="#1AB26B" stroke-width="2.25" stroke-miterlimit="10" stroke-linecap="round" stroke-linejoin="round"/>
<path d="M75.9634 68.5884L77.4562 70.4315" stroke="#1AB26B" stroke-width="2.25" stroke-miterlimit="10" stroke-linecap="round" stroke-linejoin="round"/>
<path d="M73.1628 70.7065C73.0479 70.7311 72.9291 70.6724 72.8316 70.6178C72.712 70.5464 72.605 70.4553 72.5075 70.3571C72.4465 70.3032 71.4307 69.048 71.3498 68.9458C71.2983 68.8824 71.2627 68.8032 71.2587 68.7216C71.2548 68.6534 71.2793 68.5782 71.3364 68.537C71.3419 68.5338 74.2223 66.3539 74.2254 66.3515C74.2365 66.3428 74.2484 66.3365 74.2603 66.3317C74.3126 66.3095 74.372 66.3111 74.4259 66.3262C74.5059 66.3492 74.5765 66.4007 74.6288 66.4656C74.6961 66.552 75.7397 67.8262 75.7595 67.8753C75.8364 67.9902 75.9037 68.1122 75.9489 68.2422C75.9837 68.3484 76.0186 68.4854 75.9647 68.5892" stroke="#1AB26B" stroke-width="2.25" stroke-miterlimit="10" stroke-linecap="round" stroke-linejoin="round"/>
<path d="M74.4213 66.3237C74.0084 65.6826 73.7866 64.9338 73.6804 64.1834C73.51 62.9362 73.6717 61.6565 74.0314 60.4544C74.3508 59.4299 74.7311 58.3292 74.8072 57.2563C74.9427 55.6795 74.4942 54.1074 73.7937 52.7064C73.3611 51.8324 72.8206 50.9869 72.2509 50.1977C72.0829 49.8419 62.995 38.7588 62.5116 38.1153C61.8492 37.2992 61.0679 36.5702 60.1986 35.9775C58.6463 34.9212 56.7383 34.2421 54.846 34.4894C54.1107 34.5876 53.3904 34.8396 52.7723 35.2524C50.7351 36.7857 47.1503 39.4648 45.144 41.0361C44.8469 41.3071 44.5838 41.6217 44.3682 41.9616C43.1638 43.8792 43.4237 46.361 44.3049 48.3554C44.5854 48.9972 44.938 49.6129 45.3405 50.185C45.4522 50.3958 54.6456 61.7048 54.8912 62.0123C56.4847 63.9069 58.3532 65.7349 60.7327 66.5685C61.8199 66.9512 62.9879 67.0535 64.1329 67.0051C64.6503 66.9861 65.6939 66.9156 66.1947 66.937C66.6836 66.9489 67.1796 66.9932 67.6614 67.0749C68.9665 67.3007 70.2929 67.7777 71.2573 68.7167" stroke="#1AB26B" stroke-width="2.25" stroke-miterlimit="10" stroke-linecap="round" stroke-linejoin="round"/>
</svg>
