<svg width="24" height="23" viewBox="0 0 24 23" fill="none" xmlns="http://www.w3.org/2000/svg">
<path d="M10.6503 10.731C10.718 10.6701 10.7812 10.6 10.8164 10.515C10.8412 10.4562 10.8484 10.3903 10.8363 10.3278C10.8262 10.2726 10.8033 10.2206 10.7774 10.1711C10.7014 10.0344 10.6197 9.89486 10.5231 9.77172C10.4182 9.6388 10.2835 9.52563 10.1263 9.46046C10.047 9.42798 9.95847 9.40862 9.87347 9.42769C9.81233 9.44101 9.75771 9.47484 9.71171 9.51643C9.65335 9.56866 9.60447 9.63133 9.56087 9.69611C9.52752 9.74642 9.49542 9.79932 9.47759 9.85759C9.46169 9.90838 9.45737 9.96252 9.45948 10.0156C9.46399 10.1238 9.49341 10.2299 9.53241 10.3304C9.58521 10.465 9.65661 10.5937 9.73519 10.7149C9.8935 10.9582 10.1011 11.1837 10.3743 11.2962C10.5123 11.3539 10.6616 11.3859 10.8109 11.393C10.9179 11.3975 11.0276 11.3891 11.1289 11.3525C11.2283 11.3176 11.3162 11.2523 11.3792 11.168C11.4669 11.0517 11.5113 10.9072 11.5249 10.7633C11.5462 10.5461 11.4729 10.3337 11.3794 10.141C11.3026 9.97814 11.1902 9.786 11.1011 9.62826C10.9916 9.44628 10.8009 9.1034 10.6873 8.92822" stroke="#A097BF" stroke-miterlimit="10" stroke-linecap="round" stroke-linejoin="round"/>
<path d="M9.83594 9.30917C10.0722 9.26854 10.2995 9.17922 10.5053 9.05704C10.5547 9.02762 10.6038 8.99551 10.6489 8.95986C10.6779 8.93658 10.7064 8.91128 10.7291 8.88167C10.7491 8.8555 10.7647 8.82379 10.764 8.79015C10.7636 8.76696 10.7561 8.74453 10.7477 8.72316C10.6404 8.5017 10.4272 7.91397 10.3351 7.67746L10.28 7.54004" stroke="#A097BF" stroke-miterlimit="10" stroke-linecap="round" stroke-linejoin="round"/>
<path d="M3.49609 19.228L3.61981 18.9922C3.70778 18.8209 3.78589 18.639 3.84664 18.4565L3.99374 18.0035C4.02997 17.9016 4.066 17.7858 4.12637 17.6959C4.14036 17.6766 4.15656 17.6578 4.17802 17.6467C4.22249 17.6233 4.26772 17.6561 4.30414 17.6801C4.35684 17.7168 4.41338 17.7581 4.46916 17.7889C4.52263 17.8193 4.58022 17.8443 4.63801 17.8653C4.88937 17.9552 5.17763 18.0056 5.43647 18.0704C5.48659 18.0834 5.53968 18.0973 5.58779 18.1165C5.62037 18.1301 5.66052 18.1489 5.66493 18.1883C5.66809 18.218 5.65928 18.2478 5.65056 18.2758C5.63455 18.3237 5.61194 18.3716 5.58989 18.417C5.58482 18.4297 5.24826 19.0685 5.22881 19.1047C5.09761 19.3576 4.98396 19.6319 4.88889 19.9005" stroke="#A097BF" stroke-miterlimit="10" stroke-linecap="round" stroke-linejoin="round"/>
<path d="M4.13502 19.8018C4.0504 19.7446 3.93933 19.7042 3.84992 19.6554C3.80364 19.63 3.75917 19.5998 3.72285 19.5614C3.65903 19.4957 3.60594 19.3936 3.5585 19.3154C3.52678 19.2637 3.48951 19.2138 3.44073 19.1771C3.41131 19.155 3.37777 19.1375 3.34164 19.1299C3.31107 19.1232 3.27887 19.1241 3.24878 19.1327C3.21562 19.1422 3.18544 19.16 3.15803 19.1806C3.11117 19.2162 3.07034 19.2602 3.03172 19.3044C2.81725 19.562 2.61649 19.8661 2.37883 20.1034C2.21764 20.2664 2.0348 20.4096 1.83787 20.527C1.65684 20.6387 1.40701 20.7379 1.21085 20.8223C1.11329 20.8665 1.01286 20.9133 0.929681 20.9818C0.880711 21.0222 0.838546 21.0713 0.80673 21.1262C0.73639 21.248 0.716362 21.3958 0.73112 21.5343C0.741086 21.6204 0.775585 21.7092 0.847745 21.7615C0.891827 21.7941 0.945588 21.811 0.998774 21.8214C1.08521 21.8381 1.17692 21.8406 1.2649 21.8426C1.47486 21.8398 4.72438 21.8552 4.85806 21.8343C4.94718 21.8246 5.03717 21.7998 5.11029 21.746C5.17497 21.6995 5.22289 21.6309 5.24646 21.5549C5.27406 21.4664 5.27377 21.3715 5.26697 21.2798C5.25978 21.1899 5.24359 21.0989 5.22212 21.0112C5.19941 20.9174 5.15562 20.7934 5.13424 20.6993C5.08288 20.4735 5.07761 20.1879 5.04551 19.9584C5.04052 19.9297 5.03573 19.8999 5.02414 19.8729C5.01896 19.8612 5.01168 19.8487 4.99922 19.8436C4.99203 19.8409 4.98408 19.8415 4.9768 19.8436C4.96836 19.8459 4.96031 19.85 4.95274 19.8544C4.92744 19.869 4.87311 19.9133 4.84857 19.9318C4.78274 19.9814 4.71077 20.0259 4.63123 20.0494C4.58322 20.0635 4.53157 20.0694 4.48221 20.0584C4.41868 20.0444 4.36703 20.001 4.3194 19.9592C4.2642 19.9088 4.19712 19.8429 4.13502 19.8018Z" stroke="#A097BF" stroke-miterlimit="10" stroke-linecap="round" stroke-linejoin="round"/>
<path d="M8.19141 11.825C8.24076 11.7539 8.29414 11.6751 8.35547 11.6145C8.41594 11.5532 8.48714 11.5022 8.55959 11.4561C8.74195 11.3402 8.96179 11.2366 9.15747 11.1432C9.3729 11.0419 9.60816 10.9357 9.83059 10.8521" stroke="#A097BF" stroke-miterlimit="10" stroke-linecap="round" stroke-linejoin="round"/>
<path d="M5.59954 18.1222L5.89029 17.7371C6.03202 17.5452 6.16561 17.3408 6.27782 17.1301C6.46057 16.7988 6.77624 16.009 6.93139 15.6533C7.0116 15.4737 7.09708 15.2855 7.1977 15.1168C7.24686 15.0353 7.30129 14.9549 7.36962 14.888C7.41955 14.8389 7.47849 14.7985 7.5424 14.7696C7.60057 14.743 7.66353 14.7242 7.72554 14.7085C8.13627 14.6052 9.36922 14.4345 9.80333 14.3613C10.0316 14.3209 10.2746 14.2783 10.4971 14.2147C10.5819 14.1895 10.6688 14.1625 10.7467 14.1205C10.7813 14.1012 10.8145 14.0778 10.8391 14.0465C10.8576 14.0227 10.87 13.9944 10.8756 13.9647C10.8865 13.9029 10.8736 13.8396 10.8561 13.7802C10.8195 13.6616 10.76 13.5501 10.6985 13.4427C10.4903 13.0904 10.2361 12.754 9.9765 12.4381C9.79011 12.2164 9.59222 11.9922 9.37325 11.802C9.25787 11.7042 9.12965 11.6067 8.9766 11.582C8.89218 11.5681 8.80545 11.5786 8.72294 11.5988C8.60526 11.6278 8.49094 11.6749 8.3815 11.7263C8.07915 11.8733 7.79108 12.0596 7.55026 12.2954C7.44437 12.3996 7.31394 12.542 7.19281 12.6262C7.0781 12.7094 6.87456 12.8016 6.74739 12.8677C6.62588 12.9313 6.50619 13.0036 6.40566 13.0973C6.237 13.255 6.12105 13.4604 6.01573 13.6635C5.91511 13.8661 5.75104 14.1986 5.64132 14.3905C5.44458 14.7395 5.19274 15.1751 5.0235 15.5339C4.70199 16.2105 4.43548 16.9229 4.2168 17.6394" stroke="#A097BF" stroke-miterlimit="10" stroke-linecap="round" stroke-linejoin="round"/>
<path d="M17.0566 17.2573C17.0891 17.2812 17.1301 17.3052 17.1581 17.3341C17.1785 17.3546 17.1949 17.3793 17.2056 17.4061C17.2173 17.4355 17.2241 17.4669 17.2294 17.4981C17.2492 17.6268 17.2523 17.7864 17.2761 17.9142C17.2925 18.0118 17.3227 18.1072 17.363 18.1974C17.4361 18.3683 17.5634 18.5466 17.6513 18.7103C17.6885 18.7812 17.7147 18.8651 17.7423 18.9401" stroke="#A097BF" stroke-miterlimit="10" stroke-linecap="round" stroke-linejoin="round"/>
<path d="M16.2465 19.5788C16.1634 19.4287 16.0834 19.267 16.0785 19.0923C16.0757 18.9662 16.0879 18.8361 16.0627 18.7112C16.0202 18.4928 15.8916 18.2421 15.8058 18.0367C15.7811 17.9773 15.7547 17.9131 15.7379 17.8513C15.7304 17.8236 15.7249 17.7951 15.7247 17.7663C15.7234 17.7211 15.7409 17.6766 15.7492 17.6328" stroke="#A097BF" stroke-miterlimit="10" stroke-linecap="round" stroke-linejoin="round"/>
<path d="M18.0243 19.4642C17.9608 19.2834 17.8925 19.0941 17.7557 18.9548C17.6622 18.8584 17.5433 18.7884 17.4158 18.7475C17.3299 18.7201 17.2396 18.7038 17.1494 18.7052C17.0537 18.7064 16.958 18.7283 16.8722 18.7713C16.7555 18.8301 16.658 18.9215 16.5711 19.018C16.5012 19.0968 16.4372 19.1828 16.3806 19.2716C16.3361 19.342 16.2947 19.4163 16.2681 19.4955C16.2491 19.5518 16.2384 19.6113 16.2383 19.6706C16.2379 19.7394 16.2515 19.808 16.2702 19.8737C16.3289 20.0832 16.4483 20.2831 16.5176 20.4889C16.5665 20.634 16.583 20.7886 16.585 20.941C16.5851 21.017 16.5861 21.2815 16.5887 21.352C16.592 21.4307 16.5964 21.5113 16.6162 21.5876C16.6337 21.6548 16.6681 21.7178 16.7284 21.7552C16.7812 21.7886 16.8434 21.8023 16.9041 21.8121C17.1121 21.8412 17.3481 21.8398 17.5585 21.8427C17.6207 21.8407 18.4415 21.848 18.4839 21.8382C18.5157 21.8345 18.5478 21.8276 18.5764 21.8127C18.5998 21.8007 18.6203 21.7831 18.6367 21.7624C18.6694 21.7211 18.6893 21.6713 18.704 21.6212C18.7277 21.5391 18.7376 21.4527 18.7403 21.3675C18.7448 21.2103 18.7239 21.0508 18.6704 20.9026C18.6419 20.8229 18.5999 20.7474 18.5552 20.6756C18.4868 20.5681 18.3932 20.4275 18.3372 20.3146C18.2816 20.2055 18.2357 20.0868 18.1942 19.9716C18.1944 19.9717 18.0243 19.4642 18.0243 19.4642Z" stroke="#A097BF" stroke-miterlimit="10" stroke-linecap="round" stroke-linejoin="round"/>
<path d="M13.3197 13.8696C13.0657 14.0359 12.7854 14.1856 12.513 14.3201C12.0838 14.5193 11.5899 14.7877 11.1412 14.9288C10.9539 14.9861 10.7575 15.0254 10.5608 15.0157C10.1197 14.9919 9.74012 14.7185 9.43164 14.4223" stroke="#A097BF" stroke-miterlimit="10" stroke-linecap="round" stroke-linejoin="round"/>
<path d="M14.1995 14.3885C14.0069 14.3276 13.8239 14.2356 13.6548 14.1255C13.5285 14.0433 13.4046 13.9522 13.2964 13.8469C13.1923 13.7455 13.1007 13.6284 13.0422 13.4948C12.9677 13.3247 12.9513 13.1321 12.9803 12.9497C13.0724 12.383 13.515 12.182 13.9612 11.9215C14.0981 11.84 14.3037 11.6997 14.4414 11.6201" stroke="#A097BF" stroke-miterlimit="10" stroke-linecap="round" stroke-linejoin="round"/>
<path d="M17.0969 11.6C17.1449 11.4578 17.1733 11.3082 17.1913 11.1594C17.2044 11.0531 17.2118 10.9441 17.1952 10.8378C17.1734 10.6811 17.0922 10.5408 17.0078 10.4098C16.8552 10.1757 16.6782 9.92867 16.599 9.65804C16.4978 9.33394 16.4837 8.95963 16.3636 8.64099C16.3033 8.48211 16.2101 8.33597 16.112 8.19797C15.9777 8.01254 15.7876 7.76645 15.6803 7.56702C15.532 7.30627 15.3722 6.89333 15.2546 6.6137C15.2152 6.51825 15.1563 6.40479 15.1062 6.31346C15.0886 6.28011 15.0712 6.24504 15.0587 6.20949C15.0506 6.1862 15.0441 6.16205 15.0408 6.13761C15.0392 6.12487 15.0385 6.11174 15.0412 6.09918C15.0429 6.09114 15.0468 6.08251 15.0546 6.07877L15.0551 6.07858L15.0557 6.07839L15.0561 6.0782L15.0566 6.07801L15.0571 6.07781L15.0576 6.07762L15.0581 6.07743L15.0585 6.07734L15.0591 6.07724L15.0598 6.07714L15.0604 6.07705L15.0609 6.07695L15.0615 6.07686L15.0621 6.07676L15.0627 6.07667L15.0632 6.07657H15.0638H15.0645C15.0747 6.07628 15.0848 6.07973 15.0943 6.08347C15.1563 6.11059 15.245 6.17815 15.3026 6.21504C15.3685 6.25865 15.4398 6.29746 15.5111 6.3309C15.5865 6.36655 15.7021 6.41226 15.7766 6.44935C15.7955 6.45788 15.8152 6.46574 15.8361 6.46727C15.8513 6.46852 15.8668 6.46622 15.8814 6.46162C15.9101 6.45261 15.9363 6.43699 15.9611 6.42022C16.0096 6.38677 16.0539 6.34624 16.0962 6.30532C16.3094 6.09104 16.5022 5.85051 16.6694 5.59885C16.7159 5.52689 16.7619 5.45108 16.7985 5.37356C16.8197 5.32823 16.8389 5.28079 16.8493 5.23182C16.8626 5.17212 16.8603 5.10744 16.8268 5.05463C16.7928 5.00078 16.7391 4.96292 16.6871 4.92775C16.574 4.8554 16.4422 4.77816 16.3337 4.69948C16.0418 4.49287 15.6908 4.20088 15.3956 3.99954C15.3217 3.94951 15.2373 3.89556 15.1608 3.84966C14.9992 3.75766 14.3096 3.34454 14.1532 3.26787C14.0319 3.20635 13.905 3.14885 13.773 3.11483C13.6871 3.0925 13.5974 3.08369 13.509 3.09078C13.3734 3.09979 13.221 3.14895 13.0896 3.1821C12.767 3.26481 12.3771 3.26845 12.0487 3.32C11.7397 3.36629 11.4371 3.46586 11.1445 3.573" stroke="#A097BF" stroke-miterlimit="10" stroke-linecap="round" stroke-linejoin="round"/>
<path d="M11.5254 10.7368C11.6565 10.7707 11.8308 10.8073 11.9539 10.8597C12.0462 10.8969 12.1323 10.9498 12.2136 11.0068C12.419 11.1534 12.6299 11.3096 12.8757 11.3796C13.0265 11.4246 13.186 11.4371 13.3429 11.436C13.6047 11.4338 13.8738 11.3942 14.1319 11.3512C14.5652 11.2771 15.1969 11.134 15.6303 11.1237C15.9558 11.1129 16.2868 11.152 16.5939 11.2641C16.7159 11.308 16.8342 11.3669 16.9363 11.4476C17.1098 11.5847 17.2418 11.769 17.3471 11.9615C17.4298 12.1161 17.4951 12.2826 17.5261 12.4553C17.5743 12.7194 17.5456 12.9913 17.4952 13.2527C17.473 13.3652 17.4393 13.5062 17.4361 13.6207C17.4263 13.7987 17.4485 14.0256 17.4596 14.2047C17.4642 14.2988 17.4687 14.3959 17.4508 14.4891C17.4415 14.5347 17.4255 14.5812 17.3929 14.6154C17.3431 14.6666 17.268 14.6789 17.1999 14.6848C17.1125 14.6912 16.9986 14.6874 16.9104 14.6882C16.7897 14.6871 16.666 14.6809 16.5483 14.6526" stroke="#A097BF" stroke-miterlimit="10" stroke-linecap="round" stroke-linejoin="round"/>
<path d="M16.7508 13.1782C16.7614 12.7103 16.5834 12.4547 16.1689 12.2509C15.9743 12.1566 15.7643 12.0916 15.5503 12.0608C15.3705 12.0354 15.1806 12.0357 15.0105 12.1064C14.8845 12.1574 14.7757 12.2431 14.6785 12.3367C14.5653 12.4462 14.4576 12.5653 14.3664 12.6939C14.2644 12.8376 14.1813 12.9965 14.1318 13.1659C14.0771 13.3527 14.0615 13.55 14.0709 13.7438C14.0823 13.9664 14.1263 14.1882 14.2018 14.398C14.2634 14.57 14.3516 14.7334 14.447 14.8889L14.6617 15.2311C14.8744 15.5627 15.012 16.0016 15.1463 16.3717C15.3046 16.7981 15.4763 17.2367 15.7359 17.6127C15.8173 17.7264 15.9099 17.8368 16.0287 17.9129C16.0915 17.9531 16.1617 17.9826 16.2346 17.9985C16.3066 18.0143 16.3811 18.017 16.4544 18.0105C16.5851 17.998 16.7157 17.9632 16.8316 17.9007C16.9007 17.8627 16.9664 17.8123 17.0066 17.7432C17.0365 17.6922 17.0509 17.6334 17.0573 17.5752C17.0719 17.418 17.0531 17.2419 17.0455 17.0842C17.0107 16.7135 16.9718 15.9929 16.9121 15.6346C16.8829 15.4626 16.8297 15.2933 16.7561 15.135L16.6362 14.8766C16.5567 14.7006 16.4876 14.5141 16.5079 14.3177C16.5258 14.1043 16.6196 13.8929 16.6761 13.6883C16.7223 13.5226 16.7484 13.3502 16.7508 13.1782Z" stroke="#A097BF" stroke-miterlimit="10" stroke-linecap="round" stroke-linejoin="round"/>
<path d="M16.252 6.14115C16.493 6.35993 16.7514 6.56702 17.0371 6.72476C17.254 6.84579 17.4921 6.93434 17.7276 7.01187C17.9847 7.09505 18.4521 7.23448 18.7042 7.32264C19.2584 7.51709 19.8325 7.74018 20.3594 7.99997C20.5065 8.073 20.6724 8.17927 20.8368 8.20045C20.907 8.21042 20.9796 8.20735 21.0502 8.20141C21.179 8.18991 21.3453 8.16356 21.4741 8.15273C21.59 8.14276 21.7084 8.1396 21.824 8.15273C21.9137 8.1627 22.0031 8.18435 22.0893 8.2108C22.2163 8.24923 22.3686 8.31296 22.4948 8.35455C22.5276 8.36499 22.5616 8.37486 22.5956 8.38128C22.6401 8.38962 22.6893 8.39307 22.7302 8.37007C22.7521 8.35809 22.7705 8.34017 22.7863 8.32091C22.8118 8.28919 22.8359 8.24703 22.8596 8.21358C22.8829 8.1787 22.9054 8.14008 22.907 8.09715C22.9084 8.07079 22.9022 8.04463 22.8929 8.0201C22.8789 7.98311 22.8586 7.94861 22.8367 7.91584C22.7619 7.80611 22.668 7.70961 22.5703 7.62029C22.4965 7.55446 22.4185 7.48996 22.3275 7.44943C22.2667 7.42212 22.201 7.40583 22.1352 7.39576C21.9201 7.36184 21.5165 7.37439 21.2955 7.36701C21.0959 7.35954 20.8875 7.35676 20.6977 7.28805C20.5822 7.2477 20.4568 7.16098 20.3527 7.0962C20.3006 7.06246 19.9185 6.84972 19.856 6.81417C19.7244 6.7376 19.5874 6.65193 19.463 6.56395C19.1932 6.37383 18.7945 6.03717 18.5274 5.84053C18.3178 5.68471 18.0935 5.54096 17.8579 5.42788C17.5327 5.26919 17.1793 5.1563 16.8306 5.06152" stroke="#A097BF" stroke-miterlimit="10" stroke-linecap="round" stroke-linejoin="round"/>
<path d="M8.57812 6.07782C8.60611 5.98142 8.63917 5.88405 8.68133 5.79282C8.72034 5.70801 8.76768 5.62608 8.81962 5.54855C8.94132 5.36849 9.08555 5.20136 9.25306 5.0625" stroke="#A097BF" stroke-miterlimit="10" stroke-linecap="round" stroke-linejoin="round"/>
<path d="M9.44336 5.19663C9.4678 5.28508 9.49032 5.38091 9.54753 5.45479C9.58394 5.50357 9.63282 5.5419 9.68533 5.57228C9.75605 5.6133 9.83397 5.64272 9.91274 5.66457C10.0941 5.71373 10.2871 5.72743 10.4727 5.69456C10.6055 5.67041 10.733 5.61876 10.8484 5.54919C11.0035 5.45566 11.1391 5.33069 11.2528 5.1903C11.3637 5.0546 11.4514 4.89323 11.4662 4.71604C11.4801 4.55974 11.4447 4.40267 11.3909 4.25662C11.3193 4.06717 11.2132 3.88863 11.0716 3.74316" stroke="#A097BF" stroke-miterlimit="10" stroke-linecap="round" stroke-linejoin="round"/>
<path d="M8.17439 3.03838C8.1166 2.81759 8.1029 2.58616 8.11191 2.35885C8.12331 2.10164 8.17669 1.82938 8.34957 1.62967C8.53519 1.41539 8.80275 1.29196 9.06935 1.21108C9.29599 1.14448 9.53432 1.10375 9.77093 1.11736C9.89704 1.12503 10.0238 1.14956 10.1399 1.20054C10.2262 1.2383 10.3056 1.29235 10.3753 1.3554C10.5025 1.4704 10.6015 1.61415 10.6833 1.76403C10.782 1.94447 10.8564 2.13987 10.8907 2.34313" stroke="#A097BF" stroke-miterlimit="10" stroke-linecap="round" stroke-linejoin="round"/>
<path d="M8.19409 3.43002C8.16496 3.35479 8.15039 3.27352 8.15039 3.19284C8.15058 3.1317 8.16017 3.06969 8.18518 3.01344C8.20636 2.96505 8.23788 2.92154 8.2721 2.88167C8.31934 2.82695 8.37396 2.77501 8.42705 2.72595C8.67794 2.50142 8.95374 2.29596 9.25743 2.14876C9.37549 2.09318 9.50055 2.04958 9.62915 2.02706C9.74482 2.00645 9.86384 2.00319 9.98066 2.01546C10.144 2.03261 10.3045 2.07785 10.4587 2.13352C10.5947 2.18422 10.7319 2.242 10.856 2.31781C10.891 2.33994 10.9241 2.36697 10.9472 2.40175C10.9867 2.46184 11.0076 2.53266 11.023 2.60233C11.0405 2.68742 11.0478 2.77664 11.0309 2.86241" stroke="#A097BF" stroke-miterlimit="10" stroke-linecap="round" stroke-linejoin="round"/>
<path d="M8.27447 3.43875C8.26488 3.38346 8.26613 3.32644 8.27312 3.27095C8.27897 3.22773 8.28712 3.18403 8.30408 3.14369C8.31606 3.11532 8.33321 3.08926 8.35391 3.06655C8.43182 2.98471 8.55324 2.90977 8.64169 2.83809C8.82262 2.6976 9.02348 2.5366 9.22348 2.42659C9.39942 2.32865 9.59031 2.2495 9.79108 2.22314C9.96626 2.19947 10.1441 2.22927 10.3129 2.27671C10.4278 2.31121 10.557 2.34849 10.6674 2.39535C10.7218 2.41959 10.7749 2.45112 10.8134 2.49741C10.8545 2.54638 10.8799 2.60656 10.8996 2.66684C10.9245 2.74504 10.9455 2.82592 10.9524 2.90785" stroke="#A097BF" stroke-miterlimit="10" stroke-linecap="round" stroke-linejoin="round"/>
<path d="M8.80185 4.44246C8.79725 4.42512 8.79188 4.40749 8.78172 4.39244C8.77645 4.38468 8.76946 4.37749 8.76026 4.37452C8.74627 4.37021 8.73132 4.37452 8.71771 4.37826C8.68379 4.3888 8.64833 4.4003 8.61239 4.39503C8.57061 4.38985 8.53141 4.37193 8.49615 4.34989C8.44833 4.3199 8.40616 4.2808 8.3708 4.23681C8.30123 4.1497 8.25427 4.044 8.20722 3.94357C8.16534 3.85042 8.12385 3.7543 8.10152 3.65435C8.09002 3.59916 8.08341 3.53677 8.11302 3.48607C8.13573 3.44698 8.18163 3.42493 8.22639 3.42781C8.25514 3.42925 8.28283 3.43998 8.30679 3.4556C8.37186 3.49892 8.42054 3.5682 8.47842 3.61966C8.49011 3.62934 8.50267 3.63979 8.51781 3.64305C8.53554 3.64659 8.54799 3.63298 8.5548 3.61822C8.56342 3.59973 8.56668 3.57903 8.56831 3.55881C8.5732 3.46633 8.5478 3.35728 8.54148 3.26509C8.52969 3.13687 8.55384 3.00769 8.58336 2.8833" stroke="#A097BF" stroke-miterlimit="10" stroke-linecap="round" stroke-linejoin="round"/>
<path d="M8.80273 4.44307C8.83081 4.51054 8.86129 4.57934 8.89789 4.6425C8.93191 4.70229 8.9736 4.75989 9.01644 4.81384C9.10968 4.93114 9.215 5.04144 9.33728 5.12893C9.4127 5.18288 9.4953 5.22812 9.58289 5.2585C9.69693 5.29798 9.81835 5.31551 9.9389 5.31628C10.1248 5.31628 10.3147 5.28044 10.4793 5.1917C10.5768 5.1388 10.6628 5.06425 10.7285 4.97484C10.8118 4.86195 10.865 4.72894 10.902 4.59439C10.9379 4.45908 10.9596 4.31763 10.9514 4.17743C10.9482 4.11198 10.9353 4.02832 10.9484 3.9644C10.9545 3.93383 10.9683 3.90518 10.9843 3.87863C11.0227 3.81634 11.0714 3.75568 11.1026 3.68917C11.1376 3.61596 11.1591 3.53613 11.1752 3.45669C11.199 3.33182 11.2122 3.20331 11.2057 3.07615C11.2024 3.03159 11.1952 2.98587 11.1735 2.9463C11.1563 2.91486 11.1292 2.8887 11.0966 2.87366C11.0689 2.86081 11.0359 2.85746 11.0074 2.86963C10.9733 2.8842 10.9467 2.91659 10.921 2.94237C10.9093 2.95367 10.8931 2.9716 10.8764 2.97418H10.876H10.8756H10.8753H10.8749H10.8745H10.8741H10.8737H10.8733H10.873H10.8725H10.8721H10.8717L10.8712 2.97409L10.8708 2.97399L10.8703 2.9739L10.8698 2.9738L10.8693 2.9737L10.8688 2.97361L10.8683 2.97351L10.8678 2.97332L10.8673 2.97313L10.8668 2.97294L10.8663 2.97275L10.8659 2.97255L10.8654 2.97236L10.8649 2.97217L10.8643 2.97198L10.8639 2.97179L10.8637 2.9715L10.8632 2.97121L10.8627 2.97092L10.8622 2.97064L10.8617 2.97035L10.8613 2.97006L10.8608 2.96977L10.8604 2.96949C10.8525 2.96316 10.8475 2.95406 10.843 2.94515C10.8165 2.88564 10.8029 2.80552 10.7825 2.74381C10.7521 2.64242 10.6928 2.55224 10.624 2.4728C10.5825 2.42364 10.5381 2.37419 10.4899 2.33154" stroke="#A097BF" stroke-miterlimit="10" stroke-linecap="round" stroke-linejoin="round"/>
<path d="M9.74609 9.19824L9.92664 9.42114" stroke="#A097BF" stroke-miterlimit="10" stroke-linecap="round" stroke-linejoin="round"/>
<path d="M9.40806 9.45396C9.39417 9.45693 9.37979 9.44984 9.36801 9.44323C9.35354 9.4346 9.3406 9.42358 9.32881 9.4117C9.32143 9.40518 9.19858 9.25339 9.1888 9.24103C9.18258 9.23336 9.17826 9.22378 9.17778 9.21391C9.1773 9.20566 9.18028 9.19656 9.18718 9.19158C9.18785 9.19119 9.53619 8.92757 9.53657 8.92728C9.53791 8.92622 9.53935 8.92546 9.54079 8.92488C9.54712 8.9222 9.5543 8.92239 9.56082 8.92421C9.5705 8.92699 9.57903 8.93322 9.58535 8.94108C9.5935 8.95152 9.71971 9.10562 9.7221 9.11156C9.7314 9.12545 9.73954 9.14021 9.745 9.15593C9.74922 9.16877 9.75344 9.18535 9.74692 9.1979" stroke="#A097BF" stroke-miterlimit="10" stroke-linecap="round" stroke-linejoin="round"/>
<path d="M9.56132 10.133C9.51139 10.0555 9.48456 9.96491 9.47171 9.87416C9.45111 9.72332 9.47066 9.56856 9.51417 9.42318C9.55279 9.29927 9.59879 9.16616 9.60799 9.03641C9.62437 8.84571 9.57013 8.65558 9.48542 8.48615C9.43309 8.38045 9.36774 8.2782 9.29884 8.18275C9.27852 8.13973 8.17944 6.79934 8.12098 6.72153C8.04087 6.62282 7.94638 6.53466 7.84125 6.46298C7.65352 6.33524 7.42276 6.25311 7.19392 6.28301C7.10499 6.29489 7.01788 6.32537 6.94313 6.37529C6.69675 6.56073 6.26321 6.88473 6.02057 7.07476C5.98463 7.10753 5.95282 7.14558 5.92675 7.18669C5.78109 7.4186 5.81252 7.71874 5.91909 7.95995C5.95301 8.03757 5.99565 8.11203 6.04434 8.18122C6.05785 8.20671 7.16967 9.5744 7.19938 9.61158C7.3921 9.84072 7.61806 10.0618 7.90584 10.1626C8.03732 10.2089 8.17858 10.2213 8.31705 10.2154C8.37963 10.2131 8.50584 10.2046 8.5664 10.2072C8.62553 10.2086 8.68552 10.214 8.74379 10.2238C8.90162 10.2512 9.06204 10.3088 9.17866 10.4224" stroke="#A097BF" stroke-miterlimit="10" stroke-linecap="round" stroke-linejoin="round"/>
</svg>
