<svg width="19" height="21" viewBox="0 0 19 21" fill="none" xmlns="http://www.w3.org/2000/svg">
<path d="M13.0967 13.1229V14.8104L13.9967 15.8229M6.09668 8.92285H1.09668M17.0967 6.92285V4.92285C17.0967 3.81828 16.2012 2.92285 15.0967 2.92285H3.09668C1.99211 2.92285 1.09668 3.81828 1.09668 4.92285V16.9229C1.09668 18.0274 1.99211 18.9229 3.09668 18.9229H6.09668M12.0967 0.922852V4.92285M6.09668 0.922852V4.92285M17.5967 14.9229C17.5967 17.4081 15.582 19.4229 13.0967 19.4229C10.6114 19.4229 8.59668 17.4081 8.59668 14.9229C8.59668 12.4376 10.6114 10.4229 13.0967 10.4229C15.582 10.4229 17.5967 12.4376 17.5967 14.9229Z" stroke="#6C6290" stroke-width="1.5" stroke-linecap="round" stroke-linejoin="round"/>
</svg>
