<svg width="4" height="19" viewBox="0 0 4 19" fill="none" xmlns="http://www.w3.org/2000/svg">
<path d="M3 2.32568C3 1.7734 2.55228 1.32568 2 1.32568C1.44772 1.32568 1 1.7734 1 2.32568C1 2.87797 1.44772 3.32568 2 3.32568C2.55228 3.32568 3 2.87797 3 2.32568Z" stroke="white" stroke-width="1.5" stroke-linecap="round" stroke-linejoin="round"/>
<path d="M3 9.32568C3 8.7734 2.55228 8.32568 2 8.32568C1.44772 8.32568 1 8.7734 1 9.32568C1 9.87797 1.44772 10.3257 2 10.3257C2.55228 10.3257 3 9.87797 3 9.32568Z" stroke="white" stroke-width="1.5" stroke-linecap="round" stroke-linejoin="round"/>
<path d="M3 16.3257C3 15.7734 2.55228 15.3257 2 15.3257C1.44772 15.3257 1 15.7734 1 16.3257C1 16.878 1.44772 17.3257 2 17.3257C2.55228 17.3257 3 16.878 3 16.3257Z" stroke="white" stroke-width="1.5" stroke-linecap="round" stroke-linejoin="round"/>
</svg>
