<svg width="76" height="31" viewBox="0 0 76 31" fill="none" xmlns="http://www.w3.org/2000/svg">
<path d="M14.3609 3.99499C13.4779 5.03986 12.0652 5.86398 10.6524 5.74624C10.4758 4.33347 11.1675 2.83239 11.9769 1.90526C12.8598 0.830956 14.4051 0.0657017 15.656 0.00683594C15.8031 1.47848 15.2292 2.92069 14.3609 3.99499ZM15.6412 6.02586C13.5957 5.90812 11.8444 7.18845 10.8731 7.18845C9.88712 7.18845 8.40076 6.08472 6.78196 6.11415C4.67751 6.14359 2.72022 7.33562 1.64592 9.23404C-0.561543 13.0309 1.07198 18.6526 3.20586 21.743C4.25073 23.2735 5.50163 24.9512 7.14987 24.8923C8.70981 24.8335 9.3279 23.8769 11.2116 23.8769C13.11 23.8769 13.6545 24.8923 15.3028 24.8629C17.0099 24.8335 18.0842 23.3324 19.129 21.8019C20.3211 20.0653 20.8067 18.3729 20.8361 18.2846C20.8067 18.2552 17.5397 17.0043 17.5102 13.2369C17.4808 10.0876 20.0856 8.58652 20.2033 8.49822C18.7317 6.32018 16.4359 6.08472 15.6412 6.02586ZM27.4585 1.75809V24.701H31.0199V16.8571H35.9499C40.4532 16.8571 43.6172 13.7667 43.6172 9.2929C43.6172 4.81911 40.512 1.75809 36.0677 1.75809H27.4585ZM31.0199 4.76024H35.1258C38.2163 4.76024 39.9822 6.40848 39.9822 9.30762C39.9822 12.2068 38.2163 13.8697 35.1111 13.8697H31.0199V4.76024ZM50.1218 24.8776C52.3587 24.8776 54.4338 23.7444 55.3756 21.949H55.4492V24.701H58.7457V13.2811C58.7457 9.96986 56.0967 7.83598 52.0203 7.83598C48.2381 7.83598 45.442 9.99929 45.339 12.972H48.5472C48.8121 11.5592 50.1218 10.6321 51.9173 10.6321C54.0953 10.6321 55.3167 11.6475 55.3167 13.5165V14.7821L50.8724 15.047C46.7371 15.2972 44.5002 16.9896 44.5002 19.9329C44.5002 22.9056 46.8106 24.8776 50.1218 24.8776ZM51.0784 22.1551C49.18 22.1551 47.9732 21.2426 47.9732 19.8446C47.9732 18.4024 49.1358 17.5635 51.358 17.4311L55.3167 17.1809V18.476C55.3167 20.6246 53.4919 22.1551 51.0784 22.1551ZM63.1459 30.9408C66.619 30.9408 68.2525 29.6163 69.68 25.5987L75.9345 8.05672H72.3142L68.12 21.6106H68.0465L63.8523 8.05672H60.129L66.1628 24.7599L65.839 25.7753C65.2945 27.4971 64.4115 28.1594 62.8368 28.1594C62.5572 28.1594 62.0127 28.1299 61.792 28.1005V30.8525C61.998 30.9113 62.881 30.9408 63.1459 30.9408Z" fill="#C4C4C4"/>
</svg>
